<svg width="388" height="200" viewBox="0 0 388 200" fill="none" xmlns="http://www.w3.org/2000/svg">
<g style="mix-blend-mode:soft-light" opacity="0.7">
<path d="M11.7803 2.9126H3.10315V12.6213M11.7803 2.9126V12.6213M11.7803 2.9126H20.4574M11.7803 12.6213H3.10315M11.7803 12.6213V22.3301M11.7803 12.6213H20.4574M3.10315 12.6213V22.3301M11.7803 22.3301H3.10315M11.7803 22.3301V32.0388M11.7803 22.3301H20.4574M3.10315 22.3301V32.0388M11.7803 32.0388H3.10315M11.7803 32.0388V41.7476M11.7803 32.0388H20.4574M3.10315 32.0388V41.7476M11.7803 41.7476H3.10315M11.7803 41.7476V51.4563M11.7803 41.7476H20.4574M3.10315 41.7476V51.4563M11.7803 51.4563H3.10315M11.7803 51.4563V61.165M11.7803 51.4563H20.4574M3.10315 51.4563V61.165M11.7803 61.165H3.10315M11.7803 61.165V70.8738M11.7803 61.165H20.4574M3.10315 61.165V70.8738M11.7803 70.8738H3.10315M11.7803 70.8738V80.5825M11.7803 70.8738H20.4574M3.10315 70.8738V80.5825M11.7803 80.5825H3.10315M11.7803 80.5825V90.2913M11.7803 80.5825H20.4574M3.10315 80.5825V90.2913M11.7803 90.2913H3.10315M11.7803 90.2913V100M11.7803 90.2913H20.4574M3.10315 90.2913V100M11.7803 100H3.10315M11.7803 100V109.709M11.7803 100H20.4574M3.10315 100V109.709M11.7803 109.709H3.10315M11.7803 109.709V119.417M11.7803 109.709H20.4574M3.10315 109.709V119.417M11.7803 119.417H3.10315M11.7803 119.417V129.126M11.7803 119.417H20.4574M3.10315 119.417V129.126M11.7803 129.126H3.10315M11.7803 129.126V138.835M11.7803 129.126H20.4574M3.10315 129.126V138.835M11.7803 138.835H3.10315M11.7803 138.835V148.544M11.7803 138.835H20.4574M3.10315 138.835V148.544M11.7803 148.544H3.10315M11.7803 148.544V158.252M11.7803 148.544H20.4574M3.10315 148.544V158.252M11.7803 158.252H3.10315M11.7803 158.252V167.961M11.7803 158.252H20.4574M3.10315 158.252V167.961M11.7803 167.961H3.10315M11.7803 167.961V177.67M11.7803 167.961H20.4574M3.10315 167.961V177.67M11.7803 177.67H3.10315M11.7803 177.67V187.379M11.7803 177.67H20.4574M3.10315 177.67V187.379M11.7803 187.379H3.10315M11.7803 187.379V197.087M11.7803 187.379H20.4574M3.10315 187.379V197.087H11.7803M11.7803 197.087H20.4574M20.4574 2.9126V12.6213M20.4574 2.9126H29.1345M20.4574 12.6213V22.3301M20.4574 12.6213H29.1345M20.4574 22.3301V32.0388M20.4574 22.3301H29.1345M20.4574 32.0388V41.7476M20.4574 32.0388H29.1345M20.4574 41.7476V51.4563M20.4574 41.7476H29.1345M20.4574 51.4563V61.165M20.4574 51.4563H29.1345M20.4574 61.165V70.8738M20.4574 61.165H29.1345M20.4574 70.8738V80.5825M20.4574 70.8738H29.1345M20.4574 80.5825V90.2913M20.4574 80.5825H29.1345M20.4574 90.2913V100M20.4574 90.2913H29.1345M20.4574 100V109.709M20.4574 100H29.1345M20.4574 109.709V119.417M20.4574 109.709H29.1345M20.4574 119.417V129.126M20.4574 119.417H29.1345M20.4574 129.126V138.835M20.4574 129.126H29.1345M20.4574 138.835V148.544M20.4574 138.835H29.1345M20.4574 148.544V158.252M20.4574 148.544H29.1345M20.4574 158.252V167.961M20.4574 158.252H29.1345M20.4574 167.961V177.67M20.4574 167.961H29.1345M20.4574 177.67V187.379M20.4574 177.67H29.1345M20.4574 187.379V197.087M20.4574 187.379H29.1345M20.4574 197.087H29.1345M29.1345 2.9126V12.6213M29.1345 2.9126H37.8117M29.1345 12.6213V22.3301M29.1345 12.6213H37.8117M29.1345 22.3301V32.0388M29.1345 22.3301H37.8117M29.1345 32.0388V41.7476M29.1345 32.0388H37.8117M29.1345 41.7476V51.4563M29.1345 41.7476H37.8117M29.1345 51.4563V61.165M29.1345 51.4563H37.8117M29.1345 61.165V70.8738M29.1345 61.165H37.8117M29.1345 70.8738V80.5825M29.1345 70.8738H37.8117M29.1345 80.5825V90.2913M29.1345 80.5825H37.8117M29.1345 90.2913V100M29.1345 90.2913H37.8117M29.1345 100V109.709M29.1345 100H37.8117M29.1345 109.709V119.417M29.1345 109.709H37.8117M29.1345 119.417V129.126M29.1345 119.417H37.8117M29.1345 129.126V138.835M29.1345 129.126H37.8117M29.1345 138.835V148.544M29.1345 138.835H37.8117M29.1345 148.544V158.252M29.1345 148.544H37.8117M29.1345 158.252V167.961M29.1345 158.252H37.8117M29.1345 167.961V177.67M29.1345 167.961H37.8117M29.1345 177.67V187.379M29.1345 177.67H37.8117M29.1345 187.379V197.087M29.1345 187.379H37.8117M29.1345 197.087H37.8117M37.8117 2.9126V12.6213M37.8117 2.9126H46.4888M37.8117 12.6213V22.3301M37.8117 12.6213H46.4888M37.8117 22.3301V32.0388M37.8117 22.3301H46.4888M37.8117 32.0388V41.7476M37.8117 32.0388H46.4888M37.8117 41.7476V51.4563M37.8117 41.7476H46.4888M37.8117 51.4563V61.165M37.8117 51.4563H46.4888M37.8117 61.165V70.8738M37.8117 61.165H46.4888M37.8117 70.8738V80.5825M37.8117 70.8738H46.4888M37.8117 80.5825V90.2913M37.8117 80.5825H46.4888M37.8117 90.2913V100M37.8117 90.2913H46.4888M37.8117 100V109.709M37.8117 100H46.4888M37.8117 109.709V119.417M37.8117 109.709H46.4888M37.8117 119.417V129.126M37.8117 119.417H46.4888M37.8117 129.126V138.835M37.8117 129.126H46.4888M37.8117 138.835V148.544M37.8117 138.835H46.4888M37.8117 148.544V158.252M37.8117 148.544H46.4888M37.8117 158.252V167.961M37.8117 158.252H46.4888M37.8117 167.961V177.67M37.8117 167.961H46.4888M37.8117 177.67V187.379M37.8117 177.67H46.4888M37.8117 187.379V197.087M37.8117 187.379H46.4888M37.8117 197.087H46.4888M46.4888 2.9126V12.6213M46.4888 2.9126H55.1659M46.4888 12.6213V22.3301M46.4888 12.6213H55.1659M46.4888 22.3301V32.0388M46.4888 22.3301H55.1659M46.4888 32.0388V41.7476M46.4888 32.0388H55.1659M46.4888 41.7476V51.4563M46.4888 41.7476H55.1659M46.4888 51.4563V61.165M46.4888 51.4563H55.1659M46.4888 61.165V70.8738M46.4888 61.165H55.1659M46.4888 70.8738V80.5825M46.4888 70.8738H55.1659M46.4888 80.5825V90.2913M46.4888 80.5825H55.1659M46.4888 90.2913V100M46.4888 90.2913H55.1659M46.4888 100V109.709M46.4888 100H55.1659M46.4888 109.709V119.417M46.4888 109.709H55.1659M46.4888 119.417V129.126M46.4888 119.417H55.1659M46.4888 129.126V138.835M46.4888 129.126H55.1659M46.4888 138.835V148.544M46.4888 138.835H55.1659M46.4888 148.544V158.252M46.4888 148.544H55.1659M46.4888 158.252V167.961M46.4888 158.252H55.1659M46.4888 167.961V177.67M46.4888 167.961H55.1659M46.4888 177.67V187.379M46.4888 177.67H55.1659M46.4888 187.379V197.087M46.4888 187.379H55.1659M46.4888 197.087H55.1659M55.1659 2.9126V12.6213M55.1659 2.9126H63.8431M55.1659 12.6213V22.3301M55.1659 12.6213H63.8431M55.1659 22.3301V32.0388M55.1659 22.3301H63.8431M55.1659 32.0388V41.7476M55.1659 32.0388H63.8431M55.1659 41.7476V51.4563M55.1659 41.7476H63.8431M55.1659 51.4563V61.165M55.1659 51.4563H63.8431M55.1659 61.165V70.8738M55.1659 61.165H63.8431M55.1659 70.8738V80.5825M55.1659 70.8738H63.8431M55.1659 80.5825V90.2913M55.1659 80.5825H63.8431M55.1659 90.2913V100M55.1659 90.2913H63.8431M55.1659 100V109.709M55.1659 100H63.8431M55.1659 109.709V119.417M55.1659 109.709H63.8431M55.1659 119.417V129.126M55.1659 119.417H63.8431M55.1659 129.126V138.835M55.1659 129.126H63.8431M55.1659 138.835V148.544M55.1659 138.835H63.8431M55.1659 148.544V158.252M55.1659 148.544H63.8431M55.1659 158.252V167.961M55.1659 158.252H63.8431M55.1659 167.961V177.67M55.1659 167.961H63.8431M55.1659 177.67V187.379M55.1659 177.67H63.8431M55.1659 187.379V197.087M55.1659 187.379H63.8431M55.1659 197.087H63.8431M63.8431 2.9126V12.6213M63.8431 2.9126H72.5202M63.8431 12.6213V22.3301M63.8431 12.6213H72.5202M63.8431 22.3301V32.0388M63.8431 22.3301H72.5202M63.8431 32.0388V41.7476M63.8431 32.0388H72.5202M63.8431 41.7476V51.4563M63.8431 41.7476H72.5202M63.8431 51.4563V61.165M63.8431 51.4563H72.5202M63.8431 61.165V70.8738M63.8431 61.165H72.5202M63.8431 70.8738V80.5825M63.8431 70.8738H72.5202M63.8431 80.5825V90.2913M63.8431 80.5825H72.5202M63.8431 90.2913V100M63.8431 90.2913H72.5202M63.8431 100V109.709M63.8431 100H72.5202M63.8431 109.709V119.417M63.8431 109.709H72.5202M63.8431 119.417V129.126M63.8431 119.417H72.5202M63.8431 129.126V138.835M63.8431 129.126H72.5202M63.8431 138.835V148.544M63.8431 138.835H72.5202M63.8431 148.544V158.252M63.8431 148.544H72.5202M63.8431 158.252V167.961M63.8431 158.252H72.5202M63.8431 167.961V177.67M63.8431 167.961H72.5202M63.8431 177.67V187.379M63.8431 177.67H72.5202M63.8431 187.379V197.087M63.8431 187.379H72.5202M63.8431 197.087H72.5202M72.5202 2.9126V12.6213M72.5202 2.9126H81.1973M72.5202 12.6213V22.3301M72.5202 12.6213H81.1973M72.5202 22.3301V32.0388M72.5202 22.3301H81.1973M72.5202 32.0388V41.7476M72.5202 32.0388H81.1973M72.5202 41.7476V51.4563M72.5202 41.7476H81.1973M72.5202 51.4563V61.165M72.5202 51.4563H81.1973M72.5202 61.165V70.8738M72.5202 61.165H81.1973M72.5202 70.8738V80.5825M72.5202 70.8738H81.1973M72.5202 80.5825V90.2913M72.5202 80.5825H81.1973M72.5202 90.2913V100M72.5202 90.2913H81.1973M72.5202 100V109.709M72.5202 100H81.1973M72.5202 109.709V119.417M72.5202 109.709H81.1973M72.5202 119.417V129.126M72.5202 119.417H81.1973M72.5202 129.126V138.835M72.5202 129.126H81.1973M72.5202 138.835V148.544M72.5202 138.835H81.1973M72.5202 148.544V158.252M72.5202 148.544H81.1973M72.5202 158.252V167.961M72.5202 158.252H81.1973M72.5202 167.961V177.67M72.5202 167.961H81.1973M72.5202 177.67V187.379M72.5202 177.67H81.1973M72.5202 187.379V197.087M72.5202 187.379H81.1973M72.5202 197.087H81.1973M81.1973 2.9126V12.6213M81.1973 2.9126H89.8745M81.1973 12.6213V22.3301M81.1973 12.6213H89.8745M81.1973 22.3301V32.0388M81.1973 22.3301H89.8745M81.1973 32.0388V41.7476M81.1973 32.0388H89.8745M81.1973 41.7476V51.4563M81.1973 41.7476H89.8745M81.1973 51.4563V61.165M81.1973 51.4563H89.8745M81.1973 61.165V70.8738M81.1973 61.165H89.8745M81.1973 70.8738V80.5825M81.1973 70.8738H89.8745M81.1973 80.5825V90.2913M81.1973 80.5825H89.8745M81.1973 90.2913V100M81.1973 90.2913H89.8745M81.1973 100V109.709M81.1973 100H89.8745M81.1973 109.709V119.417M81.1973 109.709H89.8745M81.1973 119.417V129.126M81.1973 119.417H89.8745M81.1973 129.126V138.835M81.1973 129.126H89.8745M81.1973 138.835V148.544M81.1973 138.835H89.8745M81.1973 148.544V158.252M81.1973 148.544H89.8745M81.1973 158.252V167.961M81.1973 158.252H89.8745M81.1973 167.961V177.67M81.1973 167.961H89.8745M81.1973 177.67V187.379M81.1973 177.67H89.8745M81.1973 187.379V197.087M81.1973 187.379H89.8745M81.1973 197.087H89.8745M89.8745 2.9126V12.6213M89.8745 2.9126H98.5516M89.8745 12.6213V22.3301M89.8745 12.6213H98.5516M89.8745 22.3301V32.0388M89.8745 22.3301H98.5516M89.8745 32.0388V41.7476M89.8745 32.0388H98.5516M89.8745 41.7476V51.4563M89.8745 41.7476H98.5516M89.8745 51.4563V61.165M89.8745 51.4563H98.5516M89.8745 61.165V70.8738M89.8745 61.165H98.5516M89.8745 70.8738V80.5825M89.8745 70.8738H98.5516M89.8745 80.5825V90.2913M89.8745 80.5825H98.5516M89.8745 90.2913V100M89.8745 90.2913H98.5516M89.8745 100V109.709M89.8745 100H98.5516M89.8745 109.709V119.417M89.8745 109.709H98.5516M89.8745 119.417V129.126M89.8745 119.417H98.5516M89.8745 129.126V138.835M89.8745 129.126H98.5516M89.8745 138.835V148.544M89.8745 138.835H98.5516M89.8745 148.544V158.252M89.8745 148.544H98.5516M89.8745 158.252V167.961M89.8745 158.252H98.5516M89.8745 167.961V177.67M89.8745 167.961H98.5516M89.8745 177.67V187.379M89.8745 177.67H98.5516M89.8745 187.379V197.087M89.8745 187.379H98.5516M89.8745 197.087H98.5516M98.5516 2.9126V12.6213M98.5516 2.9126H107.229M98.5516 12.6213V22.3301M98.5516 12.6213H107.229M98.5516 22.3301V32.0388M98.5516 22.3301H107.229M98.5516 32.0388V41.7476M98.5516 32.0388H107.229M98.5516 41.7476V51.4563M98.5516 41.7476H107.229M98.5516 51.4563V61.165M98.5516 51.4563H107.229M98.5516 61.165V70.8738M98.5516 61.165H107.229M98.5516 70.8738V80.5825M98.5516 70.8738H107.229M98.5516 80.5825V90.2913M98.5516 80.5825H107.229M98.5516 90.2913V100M98.5516 90.2913H107.229M98.5516 100V109.709M98.5516 100H107.229M98.5516 109.709V119.417M98.5516 109.709H107.229M98.5516 119.417V129.126M98.5516 119.417H107.229M98.5516 129.126V138.835M98.5516 129.126H107.229M98.5516 138.835V148.544M98.5516 138.835H107.229M98.5516 148.544V158.252M98.5516 148.544H107.229M98.5516 158.252V167.961M98.5516 158.252H107.229M98.5516 167.961V177.67M98.5516 167.961H107.229M98.5516 177.67V187.379M98.5516 177.67H107.229M98.5516 187.379V197.087M98.5516 187.379H107.229M98.5516 197.087H107.229M107.229 2.9126V12.6213M107.229 2.9126H115.906M107.229 12.6213V22.3301M107.229 12.6213H115.906M107.229 22.3301V32.0388M107.229 22.3301H115.906M107.229 32.0388V41.7476M107.229 32.0388H115.906M107.229 41.7476V51.4563M107.229 41.7476H115.906M107.229 51.4563V61.165M107.229 51.4563H115.906M107.229 61.165V70.8738M107.229 61.165H115.906M107.229 70.8738V80.5825M107.229 70.8738H115.906M107.229 80.5825V90.2913M107.229 80.5825H115.906M107.229 90.2913V100M107.229 90.2913H115.906M107.229 100V109.709M107.229 100H115.906M107.229 109.709V119.417M107.229 109.709H115.906M107.229 119.417V129.126M107.229 119.417H115.906M107.229 129.126V138.835M107.229 129.126H115.906M107.229 138.835V148.544M107.229 138.835H115.906M107.229 148.544V158.252M107.229 148.544H115.906M107.229 158.252V167.961M107.229 158.252H115.906M107.229 167.961V177.67M107.229 167.961H115.906M107.229 177.67V187.379M107.229 177.67H115.906M107.229 187.379V197.087M107.229 187.379H115.906M107.229 197.087H115.906M115.906 2.9126V12.6213M115.906 2.9126H124.583M115.906 12.6213V22.3301M115.906 12.6213H124.583M115.906 22.3301V32.0388M115.906 22.3301H124.583M115.906 32.0388V41.7476M115.906 32.0388H124.583M115.906 41.7476V51.4563M115.906 41.7476H124.583M115.906 51.4563V61.165M115.906 51.4563H124.583M115.906 61.165V70.8738M115.906 61.165H124.583M115.906 70.8738V80.5825M115.906 70.8738H124.583M115.906 80.5825V90.2913M115.906 80.5825H124.583M115.906 90.2913V100M115.906 90.2913H124.583M115.906 100V109.709M115.906 100H124.583M115.906 109.709V119.417M115.906 109.709H124.583M115.906 119.417V129.126M115.906 119.417H124.583M115.906 129.126V138.835M115.906 129.126H124.583M115.906 138.835V148.544M115.906 138.835H124.583M115.906 148.544V158.252M115.906 148.544H124.583M115.906 158.252V167.961M115.906 158.252H124.583M115.906 167.961V177.67M115.906 167.961H124.583M115.906 177.67V187.379M115.906 177.67H124.583M115.906 187.379V197.087M115.906 187.379H124.583M115.906 197.087H124.583M124.583 2.9126V12.6213M124.583 2.9126H133.26M124.583 12.6213V22.3301M124.583 12.6213H133.26M124.583 22.3301V32.0388M124.583 22.3301H133.26M124.583 32.0388V41.7476M124.583 32.0388H133.26M124.583 41.7476V51.4563M124.583 41.7476H133.26M124.583 51.4563V61.165M124.583 51.4563H133.26M124.583 61.165V70.8738M124.583 61.165H133.26M124.583 70.8738V80.5825M124.583 70.8738H133.26M124.583 80.5825V90.2913M124.583 80.5825H133.26M124.583 90.2913V100M124.583 90.2913H133.26M124.583 100V109.709M124.583 100H133.26M124.583 109.709V119.417M124.583 109.709H133.26M124.583 119.417V129.126M124.583 119.417H133.26M124.583 129.126V138.835M124.583 129.126H133.26M124.583 138.835V148.544M124.583 138.835H133.26M124.583 148.544V158.252M124.583 148.544H133.26M124.583 158.252V167.961M124.583 158.252H133.26M124.583 167.961V177.67M124.583 167.961H133.26M124.583 177.67V187.379M124.583 177.67H133.26M124.583 187.379V197.087M124.583 187.379H133.26M124.583 197.087H133.26M133.26 2.9126V12.6213M133.26 2.9126H141.937M133.26 12.6213V22.3301M133.26 12.6213H141.937M133.26 22.3301V32.0388M133.26 22.3301H141.937M133.26 32.0388V41.7476M133.26 32.0388H141.937M133.26 41.7476V51.4563M133.26 41.7476H141.937M133.26 51.4563V61.165M133.26 51.4563H141.937M133.26 61.165V70.8738M133.26 61.165H141.937M133.26 70.8738V80.5825M133.26 70.8738H141.937M133.26 80.5825V90.2913M133.26 80.5825H141.937M133.26 90.2913V100M133.26 90.2913H141.937M133.26 100V109.709M133.26 100H141.937M133.26 109.709V119.417M133.26 109.709H141.937M133.26 119.417V129.126M133.26 119.417H141.937M133.26 129.126V138.835M133.26 129.126H141.937M133.26 138.835V148.544M133.26 138.835H141.937M133.26 148.544V158.252M133.26 148.544H141.937M133.26 158.252V167.961M133.26 158.252H141.937M133.26 167.961V177.67M133.26 167.961H141.937M133.26 177.67V187.379M133.26 177.67H141.937M133.26 187.379V197.087M133.26 187.379H141.937M133.26 197.087H141.937M141.937 2.9126V12.6213M141.937 2.9126H150.614M141.937 12.6213V22.3301M141.937 12.6213H150.614M141.937 22.3301V32.0388M141.937 22.3301H150.614M141.937 32.0388V41.7476M141.937 32.0388H150.614M141.937 41.7476V51.4563M141.937 41.7476H150.614M141.937 51.4563V61.165M141.937 51.4563H150.614M141.937 61.165V70.8738M141.937 61.165H150.614M141.937 70.8738V80.5825M141.937 70.8738H150.614M141.937 80.5825V90.2913M141.937 80.5825H150.614M141.937 90.2913V100M141.937 90.2913H150.614M141.937 100V109.709M141.937 100H150.614M141.937 109.709V119.417M141.937 109.709H150.614M141.937 119.417V129.126M141.937 119.417H150.614M141.937 129.126V138.835M141.937 129.126H150.614M141.937 138.835V148.544M141.937 138.835H150.614M141.937 148.544V158.252M141.937 148.544H150.614M141.937 158.252V167.961M141.937 158.252H150.614M141.937 167.961V177.67M141.937 167.961H150.614M141.937 177.67V187.379M141.937 177.67H150.614M141.937 187.379V197.087M141.937 187.379H150.614M141.937 197.087H150.614M150.614 2.9126V12.6213M150.614 2.9126H159.291M150.614 12.6213V22.3301M150.614 12.6213H159.291M150.614 22.3301V32.0388M150.614 22.3301H159.291M150.614 32.0388V41.7476M150.614 32.0388H159.291M150.614 41.7476V51.4563M150.614 41.7476H159.291M150.614 51.4563V61.165M150.614 51.4563H159.291M150.614 61.165V70.8738M150.614 61.165H159.291M150.614 70.8738V80.5825M150.614 70.8738H159.291M150.614 80.5825V90.2913M150.614 80.5825H159.291M150.614 90.2913V100M150.614 90.2913H159.291M150.614 100V109.709M150.614 100H159.291M150.614 109.709V119.417M150.614 109.709H159.291M150.614 119.417V129.126M150.614 119.417H159.291M150.614 129.126V138.835M150.614 129.126H159.291M150.614 138.835V148.544M150.614 138.835H159.291M150.614 148.544V158.252M150.614 148.544H159.291M150.614 158.252V167.961M150.614 158.252H159.291M150.614 167.961V177.67M150.614 167.961H159.291M150.614 177.67V187.379M150.614 177.67H159.291M150.614 187.379V197.087M150.614 187.379H159.291M150.614 197.087H159.291M159.291 2.9126V12.6213M159.291 2.9126H167.969M159.291 12.6213V22.3301M159.291 12.6213H167.969M159.291 22.3301V32.0388M159.291 22.3301H167.969M159.291 32.0388V41.7476M159.291 32.0388H167.969M159.291 41.7476V51.4563M159.291 41.7476H167.969M159.291 51.4563V61.165M159.291 51.4563H167.969M159.291 61.165V70.8738M159.291 61.165H167.969M159.291 70.8738V80.5825M159.291 70.8738H167.969M159.291 80.5825V90.2913M159.291 80.5825H167.969M159.291 90.2913V100M159.291 90.2913H167.969M159.291 100V109.709M159.291 100H167.969M159.291 109.709V119.417M159.291 109.709H167.969M159.291 119.417V129.126M159.291 119.417H167.969M159.291 129.126V138.835M159.291 129.126H167.969M159.291 138.835V148.544M159.291 138.835H167.969M159.291 148.544V158.252M159.291 148.544H167.969M159.291 158.252V167.961M159.291 158.252H167.969M159.291 167.961V177.67M159.291 167.961H167.969M159.291 177.67V187.379M159.291 177.67H167.969M159.291 187.379V197.087M159.291 187.379H167.969M159.291 197.087H167.969M167.969 2.9126V12.6213M167.969 2.9126H176.646M167.969 12.6213V22.3301M167.969 12.6213H176.646M167.969 22.3301V32.0388M167.969 22.3301H176.646M167.969 32.0388V41.7476M167.969 32.0388H176.646M167.969 41.7476V51.4563M167.969 41.7476H176.646M167.969 51.4563V61.165M167.969 51.4563H176.646M167.969 61.165V70.8738M167.969 61.165H176.646M167.969 70.8738V80.5825M167.969 70.8738H176.646M167.969 80.5825V90.2913M167.969 80.5825H176.646M167.969 90.2913V100M167.969 90.2913H176.646M167.969 100V109.709M167.969 100H176.646M167.969 109.709V119.417M167.969 109.709H176.646M167.969 119.417V129.126M167.969 119.417H176.646M167.969 129.126V138.835M167.969 129.126H176.646M167.969 138.835V148.544M167.969 138.835H176.646M167.969 148.544V158.252M167.969 148.544H176.646M167.969 158.252V167.961M167.969 158.252H176.646M167.969 167.961V177.67M167.969 167.961H176.646M167.969 177.67V187.379M167.969 177.67H176.646M167.969 187.379V197.087M167.969 187.379H176.646M167.969 197.087H176.646M176.646 2.9126V12.6213M176.646 2.9126H185.323M176.646 12.6213V22.3301M176.646 12.6213H185.323M176.646 22.3301V32.0388M176.646 22.3301H185.323M176.646 32.0388V41.7476M176.646 32.0388H185.323M176.646 41.7476V51.4563M176.646 41.7476H185.323M176.646 51.4563V61.165M176.646 51.4563H185.323M176.646 61.165V70.8738M176.646 61.165H185.323M176.646 70.8738V80.5825M176.646 70.8738H185.323M176.646 80.5825V90.2913M176.646 80.5825H185.323M176.646 90.2913V100M176.646 90.2913H185.323M176.646 100V109.709M176.646 100H185.323M176.646 109.709V119.417M176.646 109.709H185.323M176.646 119.417V129.126M176.646 119.417H185.323M176.646 129.126V138.835M176.646 129.126H185.323M176.646 138.835V148.544M176.646 138.835H185.323M176.646 148.544V158.252M176.646 148.544H185.323M176.646 158.252V167.961M176.646 158.252H185.323M176.646 167.961V177.67M176.646 167.961H185.323M176.646 177.67V187.379M176.646 177.67H185.323M176.646 187.379V197.087M176.646 187.379H185.323M176.646 197.087H185.323M185.323 2.9126V12.6213M185.323 2.9126H194M185.323 12.6213V22.3301M185.323 12.6213H194M185.323 22.3301V32.0388M185.323 22.3301H194M185.323 32.0388V41.7476M185.323 32.0388H194M185.323 41.7476V51.4563M185.323 41.7476H194M185.323 51.4563V61.165M185.323 51.4563H194M185.323 61.165V70.8738M185.323 61.165H194M185.323 70.8738V80.5825M185.323 70.8738H194M185.323 80.5825V90.2913M185.323 80.5825H194M185.323 90.2913V100M185.323 90.2913H194M185.323 100V109.709M185.323 100H194M185.323 109.709V119.417M185.323 109.709H194M185.323 119.417V129.126M185.323 119.417H194M185.323 129.126V138.835M185.323 129.126H194M185.323 138.835V148.544M185.323 138.835H194M185.323 148.544V158.252M185.323 148.544H194M185.323 158.252V167.961M185.323 158.252H194M185.323 167.961V177.67M185.323 167.961H194M185.323 177.67V187.379M185.323 177.67H194M185.323 187.379V197.087M185.323 187.379H194M185.323 197.087H194M194 2.9126V12.6213M194 2.9126H202.677M194 12.6213V22.3301M194 12.6213H202.677M194 22.3301V32.0388M194 22.3301H202.677M194 32.0388V41.7476M194 32.0388H202.677M194 41.7476V51.4563M194 41.7476H202.677M194 51.4563V61.165M194 51.4563H202.677M194 61.165V70.8738M194 61.165H202.677M194 70.8738V80.5825M194 70.8738H202.677M194 80.5825V90.2913M194 80.5825H202.677M194 90.2913V100M194 90.2913H202.677M194 100V109.709M194 100H202.677M194 109.709V119.417M194 109.709H202.677M194 119.417V129.126M194 119.417H202.677M194 129.126V138.835M194 129.126H202.677M194 138.835V148.544M194 138.835H202.677M194 148.544V158.252M194 148.544H202.677M194 158.252V167.961M194 158.252H202.677M194 167.961V177.67M194 167.961H202.677M194 177.67V187.379M194 177.67H202.677M194 187.379V197.087M194 187.379H202.677M194 197.087H202.677M202.677 2.9126V12.6213M202.677 2.9126H211.354M202.677 12.6213V22.3301M202.677 12.6213H211.354M202.677 22.3301V32.0388M202.677 22.3301H211.354M202.677 32.0388V41.7476M202.677 32.0388H211.354M202.677 41.7476V51.4563M202.677 41.7476H211.354M202.677 51.4563V61.165M202.677 51.4563H211.354M202.677 61.165V70.8738M202.677 61.165H211.354M202.677 70.8738V80.5825M202.677 70.8738H211.354M202.677 80.5825V90.2913M202.677 80.5825H211.354M202.677 90.2913V100M202.677 90.2913H211.354M202.677 100V109.709M202.677 100H211.354M202.677 109.709V119.417M202.677 109.709H211.354M202.677 119.417V129.126M202.677 119.417H211.354M202.677 129.126V138.835M202.677 129.126H211.354M202.677 138.835V148.544M202.677 138.835H211.354M202.677 148.544V158.252M202.677 148.544H211.354M202.677 158.252V167.961M202.677 158.252H211.354M202.677 167.961V177.67M202.677 167.961H211.354M202.677 177.67V187.379M202.677 177.67H211.354M202.677 187.379V197.087M202.677 187.379H211.354M202.677 197.087H211.354M211.354 2.9126V12.6213M211.354 2.9126H220.031M211.354 12.6213V22.3301M211.354 12.6213H220.031M211.354 22.3301V32.0388M211.354 22.3301H220.031M211.354 32.0388V41.7476M211.354 32.0388H220.031M211.354 41.7476V51.4563M211.354 41.7476H220.031M211.354 51.4563V61.165M211.354 51.4563H220.031M211.354 61.165V70.8738M211.354 61.165H220.031M211.354 70.8738V80.5825M211.354 70.8738H220.031M211.354 80.5825V90.2913M211.354 80.5825H220.031M211.354 90.2913V100M211.354 90.2913H220.031M211.354 100V109.709M211.354 100H220.031M211.354 109.709V119.417M211.354 109.709H220.031M211.354 119.417V129.126M211.354 119.417H220.031M211.354 129.126V138.835M211.354 129.126H220.031M211.354 138.835V148.544M211.354 138.835H220.031M211.354 148.544V158.252M211.354 148.544H220.031M211.354 158.252V167.961M211.354 158.252H220.031M211.354 167.961V177.67M211.354 167.961H220.031M211.354 177.67V187.379M211.354 177.67H220.031M211.354 187.379V197.087M211.354 187.379H220.031M211.354 197.087H220.031M220.031 2.9126V12.6213M220.031 2.9126H228.709M220.031 12.6213V22.3301M220.031 12.6213H228.709M220.031 22.3301V32.0388M220.031 22.3301H228.709M220.031 32.0388V41.7476M220.031 32.0388H228.709M220.031 41.7476V51.4563M220.031 41.7476H228.709M220.031 51.4563V61.165M220.031 51.4563H228.709M220.031 61.165V70.8738M220.031 61.165H228.709M220.031 70.8738V80.5825M220.031 70.8738H228.709M220.031 80.5825V90.2913M220.031 80.5825H228.709M220.031 90.2913V100M220.031 90.2913H228.709M220.031 100V109.709M220.031 100H228.709M220.031 109.709V119.417M220.031 109.709H228.709M220.031 119.417V129.126M220.031 119.417H228.709M220.031 129.126V138.835M220.031 129.126H228.709M220.031 138.835V148.544M220.031 138.835H228.709M220.031 148.544V158.252M220.031 148.544H228.709M220.031 158.252V167.961M220.031 158.252H228.709M220.031 167.961V177.67M220.031 167.961H228.709M220.031 177.67V187.379M220.031 177.67H228.709M220.031 187.379V197.087M220.031 187.379H228.709M220.031 197.087H228.709M228.709 2.9126V12.6213M228.709 2.9126H237.386M228.709 12.6213V22.3301M228.709 12.6213H237.386M228.709 22.3301V32.0388M228.709 22.3301H237.386M228.709 32.0388V41.7476M228.709 32.0388H237.386M228.709 41.7476V51.4563M228.709 41.7476H237.386M228.709 51.4563V61.165M228.709 51.4563H237.386M228.709 61.165V70.8738M228.709 61.165H237.386M228.709 70.8738V80.5825M228.709 70.8738H237.386M228.709 80.5825V90.2913M228.709 80.5825H237.386M228.709 90.2913V100M228.709 90.2913H237.386M228.709 100V109.709M228.709 100H237.386M228.709 109.709V119.417M228.709 109.709H237.386M228.709 119.417V129.126M228.709 119.417H237.386M228.709 129.126V138.835M228.709 129.126H237.386M228.709 138.835V148.544M228.709 138.835H237.386M228.709 148.544V158.252M228.709 148.544H237.386M228.709 158.252V167.961M228.709 158.252H237.386M228.709 167.961V177.67M228.709 167.961H237.386M228.709 177.67V187.379M228.709 177.67H237.386M228.709 187.379V197.087M228.709 187.379H237.386M228.709 197.087H237.386M237.386 2.9126V12.6213M237.386 2.9126H246.063M237.386 12.6213V22.3301M237.386 12.6213H246.063M237.386 22.3301V32.0388M237.386 22.3301H246.063M237.386 32.0388V41.7476M237.386 32.0388H246.063M237.386 41.7476V51.4563M237.386 41.7476H246.063M237.386 51.4563V61.165M237.386 51.4563H246.063M237.386 61.165V70.8738M237.386 61.165H246.063M237.386 70.8738V80.5825M237.386 70.8738H246.063M237.386 80.5825V90.2913M237.386 80.5825H246.063M237.386 90.2913V100M237.386 90.2913H246.063M237.386 100V109.709M237.386 100H246.063M237.386 109.709V119.417M237.386 109.709H246.063M237.386 119.417V129.126M237.386 119.417H246.063M237.386 129.126V138.835M237.386 129.126H246.063M237.386 138.835V148.544M237.386 138.835H246.063M237.386 148.544V158.252M237.386 148.544H246.063M237.386 158.252V167.961M237.386 158.252H246.063M237.386 167.961V177.67M237.386 167.961H246.063M237.386 177.67V187.379M237.386 177.67H246.063M237.386 187.379V197.087M237.386 187.379H246.063M237.386 197.087H246.063M246.063 2.9126V12.6213M246.063 2.9126H254.74M246.063 12.6213V22.3301M246.063 12.6213H254.74M246.063 22.3301V32.0388M246.063 22.3301H254.74M246.063 32.0388V41.7476M246.063 32.0388H254.74M246.063 41.7476V51.4563M246.063 41.7476H254.74M246.063 51.4563V61.165M246.063 51.4563H254.74M246.063 61.165V70.8738M246.063 61.165H254.74M246.063 70.8738V80.5825M246.063 70.8738H254.74M246.063 80.5825V90.2913M246.063 80.5825H254.74M246.063 90.2913V100M246.063 90.2913H254.74M246.063 100V109.709M246.063 100H254.74M246.063 109.709V119.417M246.063 109.709H254.74M246.063 119.417V129.126M246.063 119.417H254.74M246.063 129.126V138.835M246.063 129.126H254.74M246.063 138.835V148.544M246.063 138.835H254.74M246.063 148.544V158.252M246.063 148.544H254.74M246.063 158.252V167.961M246.063 158.252H254.74M246.063 167.961V177.67M246.063 167.961H254.74M246.063 177.67V187.379M246.063 177.67H254.74M246.063 187.379V197.087M246.063 187.379H254.74M246.063 197.087H254.74M254.74 2.9126V12.6213M254.74 2.9126H263.417M254.74 12.6213V22.3301M254.74 12.6213H263.417M254.74 22.3301V32.0388M254.74 22.3301H263.417M254.74 32.0388V41.7476M254.74 32.0388H263.417M254.74 41.7476V51.4563M254.74 41.7476H263.417M254.74 51.4563V61.165M254.74 51.4563H263.417M254.74 61.165V70.8738M254.74 61.165H263.417M254.74 70.8738V80.5825M254.74 70.8738H263.417M254.74 80.5825V90.2913M254.74 80.5825H263.417M254.74 90.2913V100M254.74 90.2913H263.417M254.74 100V109.709M254.74 100H263.417M254.74 109.709V119.417M254.74 109.709H263.417M254.74 119.417V129.126M254.74 119.417H263.417M254.74 129.126V138.835M254.74 129.126H263.417M254.74 138.835V148.544M254.74 138.835H263.417M254.74 148.544V158.252M254.74 148.544H263.417M254.74 158.252V167.961M254.74 158.252H263.417M254.74 167.961V177.67M254.74 167.961H263.417M254.74 177.67V187.379M254.74 177.67H263.417M254.74 187.379V197.087M254.74 187.379H263.417M254.74 197.087H263.417M263.417 2.9126V12.6213M263.417 2.9126H272.094M263.417 12.6213V22.3301M263.417 12.6213H272.094M263.417 22.3301V32.0388M263.417 22.3301H272.094M263.417 32.0388V41.7476M263.417 32.0388H272.094M263.417 41.7476V51.4563M263.417 41.7476H272.094M263.417 51.4563V61.165M263.417 51.4563H272.094M263.417 61.165V70.8738M263.417 61.165H272.094M263.417 70.8738V80.5825M263.417 70.8738H272.094M263.417 80.5825V90.2913M263.417 80.5825H272.094M263.417 90.2913V100M263.417 90.2913H272.094M263.417 100V109.709M263.417 100H272.094M263.417 109.709V119.417M263.417 109.709H272.094M263.417 119.417V129.126M263.417 119.417H272.094M263.417 129.126V138.835M263.417 129.126H272.094M263.417 138.835V148.544M263.417 138.835H272.094M263.417 148.544V158.252M263.417 148.544H272.094M263.417 158.252V167.961M263.417 158.252H272.094M263.417 167.961V177.67M263.417 167.961H272.094M263.417 177.67V187.379M263.417 177.67H272.094M263.417 187.379V197.087M263.417 187.379H272.094M263.417 197.087H272.094M272.094 2.9126V12.6213M272.094 2.9126H280.771M272.094 12.6213V22.3301M272.094 12.6213H280.771M272.094 22.3301V32.0388M272.094 22.3301H280.771M272.094 32.0388V41.7476M272.094 32.0388H280.771M272.094 41.7476V51.4563M272.094 41.7476H280.771M272.094 51.4563V61.165M272.094 51.4563H280.771M272.094 61.165V70.8738M272.094 61.165H280.771M272.094 70.8738V80.5825M272.094 70.8738H280.771M272.094 80.5825V90.2913M272.094 80.5825H280.771M272.094 90.2913V100M272.094 90.2913H280.771M272.094 100V109.709M272.094 100H280.771M272.094 109.709V119.417M272.094 109.709H280.771M272.094 119.417V129.126M272.094 119.417H280.771M272.094 129.126V138.835M272.094 129.126H280.771M272.094 138.835V148.544M272.094 138.835H280.771M272.094 148.544V158.252M272.094 148.544H280.771M272.094 158.252V167.961M272.094 158.252H280.771M272.094 167.961V177.67M272.094 167.961H280.771M272.094 177.67V187.379M272.094 177.67H280.771M272.094 187.379V197.087M272.094 187.379H280.771M272.094 197.087H280.771M280.771 2.9126V12.6213M280.771 2.9126H289.448M280.771 12.6213V22.3301M280.771 12.6213H289.448M280.771 22.3301V32.0388M280.771 22.3301H289.448M280.771 32.0388V41.7476M280.771 32.0388H289.448M280.771 41.7476V51.4563M280.771 41.7476H289.448M280.771 51.4563V61.165M280.771 51.4563H289.448M280.771 61.165V70.8738M280.771 61.165H289.448M280.771 70.8738V80.5825M280.771 70.8738H289.448M280.771 80.5825V90.2913M280.771 80.5825H289.448M280.771 90.2913V100M280.771 90.2913H289.448M280.771 100V109.709M280.771 100H289.448M280.771 109.709V119.417M280.771 109.709H289.448M280.771 119.417V129.126M280.771 119.417H289.448M280.771 129.126V138.835M280.771 129.126H289.448M280.771 138.835V148.544M280.771 138.835H289.448M280.771 148.544V158.252M280.771 148.544H289.448M280.771 158.252V167.961M280.771 158.252H289.448M280.771 167.961V177.67M280.771 167.961H289.448M280.771 177.67V187.379M280.771 177.67H289.448M280.771 187.379V197.087M280.771 187.379H289.448M280.771 197.087H289.448M289.448 2.9126V12.6213M289.448 2.9126H298.126M289.448 12.6213V22.3301M289.448 12.6213H298.126M289.448 22.3301V32.0388M289.448 22.3301H298.126M289.448 32.0388V41.7476M289.448 32.0388H298.126M289.448 41.7476V51.4563M289.448 41.7476H298.126M289.448 51.4563V61.165M289.448 51.4563H298.126M289.448 61.165V70.8738M289.448 61.165H298.126M289.448 70.8738V80.5825M289.448 70.8738H298.126M289.448 80.5825V90.2913M289.448 80.5825H298.126M289.448 90.2913V100M289.448 90.2913H298.126M289.448 100V109.709M289.448 100H298.126M289.448 109.709V119.417M289.448 109.709H298.126M289.448 119.417V129.126M289.448 119.417H298.126M289.448 129.126V138.835M289.448 129.126H298.126M289.448 138.835V148.544M289.448 138.835H298.126M289.448 148.544V158.252M289.448 148.544H298.126M289.448 158.252V167.961M289.448 158.252H298.126M289.448 167.961V177.67M289.448 167.961H298.126M289.448 177.67V187.379M289.448 177.67H298.126M289.448 187.379V197.087M289.448 187.379H298.126M289.448 197.087H298.126M298.126 2.9126V12.6213M298.126 2.9126H306.803M298.126 12.6213V22.3301M298.126 12.6213H306.803M298.126 22.3301V32.0388M298.126 22.3301H306.803M298.126 32.0388V41.7476M298.126 32.0388H306.803M298.126 41.7476V51.4563M298.126 41.7476H306.803M298.126 51.4563V61.165M298.126 51.4563H306.803M298.126 61.165V70.8738M298.126 61.165H306.803M298.126 70.8738V80.5825M298.126 70.8738H306.803M298.126 80.5825V90.2913M298.126 80.5825H306.803M298.126 90.2913V100M298.126 90.2913H306.803M298.126 100V109.709M298.126 100H306.803M298.126 109.709V119.417M298.126 109.709H306.803M298.126 119.417V129.126M298.126 119.417H306.803M298.126 129.126V138.835M298.126 129.126H306.803M298.126 138.835V148.544M298.126 138.835H306.803M298.126 148.544V158.252M298.126 148.544H306.803M298.126 158.252V167.961M298.126 158.252H306.803M298.126 167.961V177.67M298.126 167.961H306.803M298.126 177.67V187.379M298.126 177.67H306.803M298.126 187.379V197.087M298.126 187.379H306.803M298.126 197.087H306.803M306.803 2.9126V12.6213M306.803 2.9126H315.48M306.803 12.6213V22.3301M306.803 12.6213H315.48M306.803 22.3301V32.0388M306.803 22.3301H315.48M306.803 32.0388V41.7476M306.803 32.0388H315.48M306.803 41.7476V51.4563M306.803 41.7476H315.48M306.803 51.4563V61.165M306.803 51.4563H315.48M306.803 61.165V70.8738M306.803 61.165H315.48M306.803 70.8738V80.5825M306.803 70.8738H315.48M306.803 80.5825V90.2913M306.803 80.5825H315.48M306.803 90.2913V100M306.803 90.2913H315.48M306.803 100V109.709M306.803 100H315.48M306.803 109.709V119.417M306.803 109.709H315.48M306.803 119.417V129.126M306.803 119.417H315.48M306.803 129.126V138.835M306.803 129.126H315.48M306.803 138.835V148.544M306.803 138.835H315.48M306.803 148.544V158.252M306.803 148.544H315.48M306.803 158.252V167.961M306.803 158.252H315.48M306.803 167.961V177.67M306.803 167.961H315.48M306.803 177.67V187.379M306.803 177.67H315.48M306.803 187.379V197.087M306.803 187.379H315.48M306.803 197.087H315.48M315.48 2.9126V12.6213M315.48 2.9126H324.157M315.48 12.6213V22.3301M315.48 12.6213H324.157M315.48 22.3301V32.0388M315.48 22.3301H324.157M315.48 32.0388V41.7476M315.48 32.0388H324.157M315.48 41.7476V51.4563M315.48 41.7476H324.157M315.48 51.4563V61.165M315.48 51.4563H324.157M315.48 61.165V70.8738M315.48 61.165H324.157M315.48 70.8738V80.5825M315.48 70.8738H324.157M315.48 80.5825V90.2913M315.48 80.5825H324.157M315.48 90.2913V100M315.48 90.2913H324.157M315.48 100V109.709M315.48 100H324.157M315.48 109.709V119.417M315.48 109.709H324.157M315.48 119.417V129.126M315.48 119.417H324.157M315.48 129.126V138.835M315.48 129.126H324.157M315.48 138.835V148.544M315.48 138.835H324.157M315.48 148.544V158.252M315.48 148.544H324.157M315.48 158.252V167.961M315.48 158.252H324.157M315.48 167.961V177.67M315.48 167.961H324.157M315.48 177.67V187.379M315.48 177.67H324.157M315.48 187.379V197.087M315.48 187.379H324.157M315.48 197.087H324.157M324.157 2.9126V12.6213M324.157 2.9126H332.834M324.157 12.6213V22.3301M324.157 12.6213H332.834M324.157 22.3301V32.0388M324.157 22.3301H332.834M324.157 32.0388V41.7476M324.157 32.0388H332.834M324.157 41.7476V51.4563M324.157 41.7476H332.834M324.157 51.4563V61.165M324.157 51.4563H332.834M324.157 61.165V70.8738M324.157 61.165H332.834M324.157 70.8738V80.5825M324.157 70.8738H332.834M324.157 80.5825V90.2913M324.157 80.5825H332.834M324.157 90.2913V100M324.157 90.2913H332.834M324.157 100V109.709M324.157 100H332.834M324.157 109.709V119.417M324.157 109.709H332.834M324.157 119.417V129.126M324.157 119.417H332.834M324.157 129.126V138.835M324.157 129.126H332.834M324.157 138.835V148.544M324.157 138.835H332.834M324.157 148.544V158.252M324.157 148.544H332.834M324.157 158.252V167.961M324.157 158.252H332.834M324.157 167.961V177.67M324.157 167.961H332.834M324.157 177.67V187.379M324.157 177.67H332.834M324.157 187.379V197.087M324.157 187.379H332.834M324.157 197.087H332.834M332.834 2.9126V12.6213M332.834 2.9126H341.511M332.834 12.6213V22.3301M332.834 12.6213H341.511M332.834 22.3301V32.0388M332.834 22.3301H341.511M332.834 32.0388V41.7476M332.834 32.0388H341.511M332.834 41.7476V51.4563M332.834 41.7476H341.511M332.834 51.4563V61.165M332.834 51.4563H341.511M332.834 61.165V70.8738M332.834 61.165H341.511M332.834 70.8738V80.5825M332.834 70.8738H341.511M332.834 80.5825V90.2913M332.834 80.5825H341.511M332.834 90.2913V100M332.834 90.2913H341.511M332.834 100V109.709M332.834 100H341.511M332.834 109.709V119.417M332.834 109.709H341.511M332.834 119.417V129.126M332.834 119.417H341.511M332.834 129.126V138.835M332.834 129.126H341.511M332.834 138.835V148.544M332.834 138.835H341.511M332.834 148.544V158.252M332.834 148.544H341.511M332.834 158.252V167.961M332.834 158.252H341.511M332.834 167.961V177.67M332.834 167.961H341.511M332.834 177.67V187.379M332.834 177.67H341.511M332.834 187.379V197.087M332.834 187.379H341.511M332.834 197.087H341.511M341.511 2.9126V12.6213M341.511 2.9126H350.188M341.511 12.6213V22.3301M341.511 12.6213H350.188M341.511 22.3301V32.0388M341.511 22.3301H350.188M341.511 32.0388V41.7476M341.511 32.0388H350.188M341.511 41.7476V51.4563M341.511 41.7476H350.188M341.511 51.4563V61.165M341.511 51.4563H350.188M341.511 61.165V70.8738M341.511 61.165H350.188M341.511 70.8738V80.5825M341.511 70.8738H350.188M341.511 80.5825V90.2913M341.511 80.5825H350.188M341.511 90.2913V100M341.511 90.2913H350.188M341.511 100V109.709M341.511 100H350.188M341.511 109.709V119.417M341.511 109.709H350.188M341.511 119.417V129.126M341.511 119.417H350.188M341.511 129.126V138.835M341.511 129.126H350.188M341.511 138.835V148.544M341.511 138.835H350.188M341.511 148.544V158.252M341.511 148.544H350.188M341.511 158.252V167.961M341.511 158.252H350.188M341.511 167.961V177.67M341.511 167.961H350.188M341.511 177.67V187.379M341.511 177.67H350.188M341.511 187.379V197.087M341.511 187.379H350.188M341.511 197.087H350.188M350.188 2.9126V12.6213M350.188 2.9126H358.865M350.188 12.6213V22.3301M350.188 12.6213H358.865M350.188 22.3301V32.0388M350.188 22.3301H358.865M350.188 32.0388V41.7476M350.188 32.0388H358.865M350.188 41.7476V51.4563M350.188 41.7476H358.865M350.188 51.4563V61.165M350.188 51.4563H358.865M350.188 61.165V70.8738M350.188 61.165H358.865M350.188 70.8738V80.5825M350.188 70.8738H358.865M350.188 80.5825V90.2913M350.188 80.5825H358.865M350.188 90.2913V100M350.188 90.2913H358.865M350.188 100V109.709M350.188 100H358.865M350.188 109.709V119.417M350.188 109.709H358.865M350.188 119.417V129.126M350.188 119.417H358.865M350.188 129.126V138.835M350.188 129.126H358.865M350.188 138.835V148.544M350.188 138.835H358.865M350.188 148.544V158.252M350.188 148.544H358.865M350.188 158.252V167.961M350.188 158.252H358.865M350.188 167.961V177.67M350.188 167.961H358.865M350.188 177.67V187.379M350.188 177.67H358.865M350.188 187.379V197.087M350.188 187.379H358.865M350.188 197.087H358.865M358.865 2.9126V12.6213M358.865 2.9126H367.543M358.865 12.6213V22.3301M358.865 12.6213H367.543M358.865 22.3301V32.0388M358.865 22.3301H367.543M358.865 32.0388V41.7476M358.865 32.0388H367.543M358.865 41.7476V51.4563M358.865 41.7476H367.543M358.865 51.4563V61.165M358.865 51.4563H367.543M358.865 61.165V70.8738M358.865 61.165H367.543M358.865 70.8738V80.5825M358.865 70.8738H367.543M358.865 80.5825V90.2913M358.865 80.5825H367.543M358.865 90.2913V100M358.865 90.2913H367.543M358.865 100V109.709M358.865 100H367.543M358.865 109.709V119.417M358.865 109.709H367.543M358.865 119.417V129.126M358.865 119.417H367.543M358.865 129.126V138.835M358.865 129.126H367.543M358.865 138.835V148.544M358.865 138.835H367.543M358.865 148.544V158.252M358.865 148.544H367.543M358.865 158.252V167.961M358.865 158.252H367.543M358.865 167.961V177.67M358.865 167.961H367.543M358.865 177.67V187.379M358.865 177.67H367.543M358.865 187.379V197.087M358.865 187.379H367.543M358.865 197.087H367.543M367.543 2.9126V12.6213M367.543 2.9126H376.22M367.543 12.6213V22.3301M367.543 12.6213H376.22M367.543 22.3301V32.0388M367.543 22.3301H376.22M367.543 32.0388V41.7476M367.543 32.0388H376.22M367.543 41.7476V51.4563M367.543 41.7476H376.22M367.543 51.4563V61.165M367.543 51.4563H376.22M367.543 61.165V70.8738M367.543 61.165H376.22M367.543 70.8738V80.5825M367.543 70.8738H376.22M367.543 80.5825V90.2913M367.543 80.5825H376.22M367.543 90.2913V100M367.543 90.2913H376.22M367.543 100V109.709M367.543 100H376.22M367.543 109.709V119.417M367.543 109.709H376.22M367.543 119.417V129.126M367.543 119.417H376.22M367.543 129.126V138.835M367.543 129.126H376.22M367.543 138.835V148.544M367.543 138.835H376.22M367.543 148.544V158.252M367.543 148.544H376.22M367.543 158.252V167.961M367.543 158.252H376.22M367.543 167.961V177.67M367.543 167.961H376.22M367.543 177.67V187.379M367.543 177.67H376.22M367.543 187.379V197.087M367.543 187.379H376.22M367.543 197.087H376.22M376.22 2.9126V12.6213M376.22 2.9126H384.897V12.6213M376.22 12.6213V22.3301M376.22 12.6213H384.897M376.22 22.3301V32.0388M376.22 22.3301H384.897M376.22 32.0388V41.7476M376.22 32.0388H384.897M376.22 41.7476V51.4563M376.22 41.7476H384.897M376.22 51.4563V61.165M376.22 51.4563H384.897M376.22 61.165V70.8738M376.22 61.165H384.897M376.22 70.8738V80.5825M376.22 70.8738H384.897M376.22 80.5825V90.2913M376.22 80.5825H384.897M376.22 90.2913V100M376.22 90.2913H384.897M376.22 100V109.709M376.22 100H384.897M376.22 109.709V119.417M376.22 109.709H384.897M376.22 119.417V129.126M376.22 119.417H384.897M376.22 129.126V138.835M376.22 129.126H384.897M376.22 138.835V148.544M376.22 138.835H384.897M376.22 148.544V158.252M376.22 148.544H384.897M376.22 158.252V167.961M376.22 158.252H384.897M376.22 167.961V177.67M376.22 167.961H384.897M376.22 177.67V187.379M376.22 177.67H384.897M376.22 187.379V197.087M376.22 187.379H384.897M376.22 197.087H384.897V187.379M384.897 12.6213V22.3301M384.897 22.3301V32.0388M384.897 32.0388V41.7476M384.897 41.7476V51.4563M384.897 51.4563V61.165M384.897 61.165V70.8738M384.897 70.8738V80.5825M384.897 80.5825V90.2913M384.897 90.2913V100M384.897 100V109.709M384.897 109.709V119.417M384.897 119.417V129.126M384.897 129.126V138.835M384.897 138.835V148.544M384.897 148.544V158.252M384.897 158.252V167.961M384.897 167.961V177.67M384.897 177.67V187.379" stroke="url(#paint0_radial_2308_388)" stroke-opacity="0.35" stroke-width="0.805493"/>
</g>
<g style="mix-blend-mode:soft-light" opacity="0.8">
<path d="M37.8117 38.8352V41.7478M37.8117 41.7478V44.6604M37.8117 41.7478H35.2085M37.8117 41.7478H40.4148M37.8117 116.505V119.418M37.8117 119.418V122.33M37.8117 119.418H35.2085M37.8117 119.418H40.4148M37.8117 194.175V197.088M37.8117 197.088V200M37.8117 197.088H35.2085M37.8117 197.088H40.4148M107.229 38.8352V41.7478M107.229 41.7478V44.6604M107.229 41.7478H104.626M107.229 41.7478H109.832M107.229 116.505V119.418M107.229 119.418V122.33M107.229 119.418H104.626M107.229 119.418H109.832M107.229 194.175V197.088M107.229 197.088V200M107.229 197.088H104.626M107.229 197.088H109.832M176.646 38.8352V41.7478M176.646 41.7478V44.6604M176.646 41.7478H174.043M176.646 41.7478H179.249M176.646 116.505V119.418M176.646 119.418V122.33M176.646 119.418H174.043M176.646 119.418H179.249M176.646 194.175V197.088M176.646 197.088V200M176.646 197.088H174.043M176.646 197.088H179.249M246.063 38.8352V41.7478M246.063 41.7478V44.6604M246.063 41.7478H243.46M246.063 41.7478H248.666M246.063 116.505V119.418M246.063 119.418V122.33M246.063 119.418H243.46M246.063 119.418H248.666M246.063 194.175V197.088M246.063 197.088V200M246.063 197.088H243.46M246.063 197.088H248.666M315.48 38.8352V41.7478M315.48 41.7478V44.6604M315.48 41.7478H312.877M315.48 41.7478H318.083M315.48 116.505V119.418M315.48 119.418V122.33M315.48 119.418H312.877M315.48 119.418H318.083M315.48 194.175V197.088M315.48 197.088V200M315.48 197.088H312.877M315.48 197.088H318.083M384.897 38.8352V41.7478M384.897 41.7478V44.6604M384.897 41.7478H382.294M384.897 41.7478H387.5M384.897 116.505V119.418M384.897 119.418V122.33M384.897 119.418H382.294M384.897 119.418H387.5M384.897 194.175V197.088M384.897 197.088V200M384.897 197.088H382.294M384.897 197.088H387.5M37.8117 0.000244141V2.91287M37.8117 2.91287V5.82549M37.8117 2.91287H35.2085M37.8117 2.91287H40.4148M37.8117 77.6702V80.5828M37.8117 80.5828V83.4954M37.8117 80.5828H35.2085M37.8117 80.5828H40.4148M37.8117 155.34V158.253M37.8117 158.253V161.165M37.8117 158.253H35.2085M37.8117 158.253H40.4148M107.229 0.000244141V2.91287M107.229 2.91287V5.82549M107.229 2.91287H104.626M107.229 2.91287H109.832M107.229 77.6702V80.5828M107.229 80.5828V83.4954M107.229 80.5828H104.626M107.229 80.5828H109.832M107.229 155.34V158.253M107.229 158.253V161.165M107.229 158.253H104.626M107.229 158.253H109.832M176.646 0.000244141V2.91287M176.646 2.91287V5.82549M176.646 2.91287H174.043M176.646 2.91287H179.249M176.646 77.6702V80.5828M176.646 80.5828V83.4954M176.646 80.5828H174.043M176.646 80.5828H179.249M176.646 155.34V158.253M176.646 158.253V161.165M176.646 158.253H174.043M176.646 158.253H179.249M246.063 0.000244141V2.91287M246.063 2.91287V5.82549M246.063 2.91287H243.46M246.063 2.91287H248.666M246.063 77.6702V80.5828M246.063 80.5828V83.4954M246.063 80.5828H243.46M246.063 80.5828H248.666M246.063 155.34V158.253M246.063 158.253V161.165M246.063 158.253H243.46M246.063 158.253H248.666M315.48 0.000244141V2.91287M315.48 2.91287V5.82549M315.48 2.91287H312.877M315.48 2.91287H318.083M315.48 77.6702V80.5828M315.48 80.5828V83.4954M315.48 80.5828H312.877M315.48 80.5828H318.083M315.48 155.34V158.253M315.48 158.253V161.165M315.48 158.253H312.877M315.48 158.253H318.083M384.897 0.000244141V2.91287M384.897 2.91287V5.82549M384.897 2.91287H382.294M384.897 2.91287H387.5M384.897 77.6702V80.5828M384.897 80.5828V83.4954M384.897 80.5828H382.294M384.897 80.5828H387.5M384.897 155.34V158.253M384.897 158.253V161.165M384.897 158.253H382.294M384.897 158.253H387.5M3.10314 38.8352V41.7478M3.10314 41.7478V44.6604M3.10314 41.7478H0.5M3.10314 41.7478H5.70628M3.10314 116.505V119.418M3.10314 119.418V122.33M3.10314 119.418H0.5M3.10314 119.418H5.70628M3.10314 194.175V197.088M3.10314 197.088V200M3.10314 197.088H0.5M3.10314 197.088H5.70628M72.5202 38.8352V41.7478M72.5202 41.7478V44.6604M72.5202 41.7478H69.9171M72.5202 41.7478H75.1233M72.5202 116.505V119.418M72.5202 119.418V122.33M72.5202 119.418H69.9171M72.5202 119.418H75.1233M72.5202 194.175V197.088M72.5202 197.088V200M72.5202 197.088H69.9171M72.5202 197.088H75.1233M141.937 38.8352V41.7478M141.937 41.7478V44.6604M141.937 41.7478H139.334M141.937 41.7478H144.54M141.937 116.505V119.418M141.937 119.418V122.33M141.937 119.418H139.334M141.937 119.418H144.54M141.937 194.175V197.088M141.937 197.088V200M141.937 197.088H139.334M141.937 197.088H144.54M211.354 38.8352V41.7478M211.354 41.7478V44.6604M211.354 41.7478H208.751M211.354 41.7478H213.957M211.354 116.505V119.418M211.354 119.418V122.33M211.354 119.418H208.751M211.354 119.418H213.957M211.354 194.175V197.088M211.354 197.088V200M211.354 197.088H208.751M211.354 197.088H213.957M280.771 38.8352V41.7478M280.771 41.7478V44.6604M280.771 41.7478H278.168M280.771 41.7478H283.374M280.771 116.505V119.418M280.771 119.418V122.33M280.771 119.418H278.168M280.771 119.418H283.374M280.771 194.175V197.088M280.771 197.088V200M280.771 197.088H278.168M280.771 197.088H283.374M350.188 38.8352V41.7478M350.188 41.7478V44.6604M350.188 41.7478H347.585M350.188 41.7478H352.791M350.188 116.505V119.418M350.188 119.418V122.33M350.188 119.418H347.585M350.188 119.418H352.791M350.188 194.175V197.088M350.188 197.088V200M350.188 197.088H347.585M350.188 197.088H352.791M3.10314 0.000258459V2.91288M3.10314 2.91288V5.8255M3.10314 2.91288H0.5M3.10314 2.91288H5.70628M3.10314 77.6702V80.5828M3.10314 80.5828V83.4954M3.10314 80.5828H0.5M3.10314 80.5828H5.70628M3.10314 155.34V158.253M3.10314 158.253V161.165M3.10314 158.253H0.5M3.10314 158.253H5.70628M72.5202 0.000244141V2.91287M72.5202 2.91287V5.82549M72.5202 2.91287H69.9171M72.5202 2.91287H75.1233M72.5202 77.6702V80.5828M72.5202 80.5828V83.4954M72.5202 80.5828H69.9171M72.5202 80.5828H75.1233M72.5202 155.34V158.253M72.5202 158.253V161.165M72.5202 158.253H69.9171M72.5202 158.253H75.1233M141.937 0.000244141V2.91287M141.937 2.91287V5.82549M141.937 2.91287H139.334M141.937 2.91287H144.54M141.937 77.6702V80.5828M141.937 80.5828V83.4954M141.937 80.5828H139.334M141.937 80.5828H144.54M141.937 155.34V158.253M141.937 158.253V161.165M141.937 158.253H139.334M141.937 158.253H144.54M211.354 0.000244141V2.91287M211.354 2.91287V5.82549M211.354 2.91287H208.751M211.354 2.91287H213.957M211.354 77.6702V80.5828M211.354 80.5828V83.4954M211.354 80.5828H208.751M211.354 80.5828H213.957M211.354 155.34V158.253M211.354 158.253V161.165M211.354 158.253H208.751M211.354 158.253H213.957M280.771 0.000244141V2.91287M280.771 2.91287V5.82549M280.771 2.91287H278.168M280.771 2.91287H283.374M280.771 77.6702V80.5828M280.771 80.5828V83.4954M280.771 80.5828H278.168M280.771 80.5828H283.374M280.771 155.34V158.253M280.771 158.253V161.165M280.771 158.253H278.168M280.771 158.253H283.374M350.188 0.000244141V2.91287M350.188 2.91287V5.82549M350.188 2.91287H347.585M350.188 2.91287H352.791M350.188 77.6702V80.5828M350.188 80.5828V83.4954M350.188 80.5828H347.585M350.188 80.5828H352.791M350.188 155.34V158.253M350.188 158.253V161.165M350.188 158.253H347.585M350.188 158.253H352.791" stroke="url(#paint1_radial_2308_388)" stroke-opacity="0.35" stroke-width="1.61099"/>
</g>
<defs>
<radialGradient id="paint0_radial_2308_388" cx="0" cy="0" r="1" gradientUnits="userSpaceOnUse" gradientTransform="translate(194 100) rotate(90) scale(97.0874 190.897)">
<stop stop-color="white"/>
<stop offset="1" stop-color="white" stop-opacity="0"/>
</radialGradient>
<radialGradient id="paint1_radial_2308_388" cx="0" cy="0" r="1" gradientUnits="userSpaceOnUse" gradientTransform="translate(194 100) rotate(90) scale(100 193.5)">
<stop stop-color="white"/>
<stop offset="1" stop-color="white" stop-opacity="0"/>
</radialGradient>
</defs>
</svg>
