<svg width="388" height="200" viewBox="0 0 388 200" fill="none" xmlns="http://www.w3.org/2000/svg">
<path fill-rule="evenodd" clip-rule="evenodd" d="M39.1369 0.116561H0.606057V33.2977H35.1451L39.1369 29.8601V0.116561ZM43.2351 33.2977L39.2948 29.9045V0.116561H77.8256V33.2977H43.2351ZM39.2948 36.7764L43.1764 33.4337H77.8256V66.6149H39.2948V36.7764ZM35.2038 33.4337L39.1369 36.8208V66.6149H0.606057V33.4337H35.2038ZM0.470703 0V33.3172V33.4143V66.6342V66.7314V99.9514V100.049V133.269V133.366V166.586V166.683V200H39.1595H39.2722H77.8481H77.961H116.537H116.65H155.226H155.338H193.914H194.027H232.603H232.716H271.292H271.404H309.98H310.093H348.669H348.782H387.471L387.471 166.683V133.366V133.269V99.9514V66.7314V33.4143V33.3172V0H348.782H348.669H310.093H309.98H271.404H271.292H232.716H232.603H194.027H193.914H155.338H155.226H116.65H116.537H77.961H77.8481H39.2722H39.1595H0.470703ZM77.9834 0.116561H116.514V33.2977H77.9834V0.116561ZM155.203 0.116561H116.672V33.2977H155.203V0.116561ZM155.361 0.116561H193.892V33.2977H155.361V0.116561ZM232.58 0.116561H194.05V33.2977H232.58V0.116561ZM232.738 0.116561H271.269V33.2977H232.738V0.116561ZM309.958 0.116561H271.427V33.2977H309.958V0.116561ZM310.116 0.116561H348.646V33.2977H310.116V0.116561ZM387.335 0.116561H348.805V33.2977H387.335V0.116561ZM77.9834 33.4337H116.514V66.6149H77.9834V33.4337ZM155.203 33.4337H116.672V66.6149H151.327L155.203 63.2773V33.4337ZM159.175 66.6149L155.361 63.3307V33.4337H193.892V66.6149H159.175ZM155.361 70.1936L159.346 66.7622L159.332 66.7508H193.892V99.9319H155.361V70.1936ZM151.169 66.7508L151.156 66.7622L155.203 70.247V99.9319H116.672V66.7508H151.169ZM232.58 33.4337H194.05V66.6149H232.58V33.4337ZM232.738 33.4337H271.269V66.6149H232.738V33.4337ZM309.958 33.4337H271.427V66.6149H309.958V33.4337ZM310.116 33.4337H348.646V57.4094L348.581 57.4657L337.957 66.6149H310.116V33.4337ZM337.799 66.7508H310.116V96.663L310.245 96.5516L314.17 99.9319H348.647V76.1151L348.581 76.0587L337.89 66.8522L337.786 66.7622L337.799 66.7508ZM348.647 75.935L337.995 66.7622L338.008 66.7508H344.604L344.591 66.7622L348.647 70.2546V75.935ZM348.804 76.0464V99.9319H387.335V66.7508H359.572L359.586 66.7622L359.481 66.8522L348.804 76.0464ZM359.363 66.7508L359.376 66.7622L348.804 75.8663V70.1861L352.78 66.7622L352.767 66.7508H359.363ZM359.414 66.6149H387.335V33.4337H348.805V57.478L359.414 66.6149ZM348.805 57.6581L359.205 66.6149H352.609L348.805 63.3384V57.6581ZM348.646 57.5894L338.166 66.6149H344.762L348.646 63.2698V57.5894ZM310.116 103.492L310.245 103.604L314.34 100.078L314.328 100.068H348.646V133.249H310.116V103.492ZM306.162 100.068L306.15 100.078L309.958 103.356V133.249H271.427V100.068H306.162ZM309.958 96.7991L306.32 99.9319H271.427V66.7508H309.958V96.7991ZM0.606057 66.7508H39.1369V99.9319H0.606057V66.7508ZM77.8256 66.7508H39.2948V99.9319H77.8256V66.7508ZM77.9834 66.7508H116.514V99.9319H77.9834V66.7508ZM232.58 66.7508H194.05V99.9319H232.58V66.7508ZM232.738 66.7508H271.269V99.9319H232.738V66.7508ZM0.606057 100.068H39.1369V133.249H0.606057V100.068ZM77.8256 100.068H39.2948V133.249H67.1793L67.1292 133.206L67.2338 133.116L77.8256 123.995V100.068ZM77.8256 124.175L67.3383 133.206L67.3884 133.249H73.9846L73.9345 133.206L77.8256 129.855V124.175ZM77.9834 129.719V124.039L78.0291 123.999L88.7199 133.206L88.6698 133.249H82.0737L82.1238 133.206L78.0291 129.68L77.9834 129.719ZM77.9834 136.693L78.0291 136.732L81.9157 133.385H88.5118L78.0291 142.412L77.9834 142.373V136.693ZM74.1425 133.385L77.8256 136.557V142.237L67.5464 133.385H74.1425ZM67.3373 133.385H39.2948V166.566H77.8256V142.417L67.3373 133.385ZM77.9834 142.553V166.566H116.514V133.385H88.7209L78.1336 142.502L78.0291 142.592L77.9834 142.553ZM88.8789 133.249H116.514V100.068H77.9834V123.859L78.0291 123.819L78.1336 123.909L88.8244 133.116L88.929 133.206L88.8789 133.249ZM155.203 100.068H116.672V133.249H155.203V100.068ZM155.361 100.068H193.892V133.249H155.361V100.068ZM232.58 100.068H194.05V133.249H232.58V100.068ZM232.738 100.068H271.269V133.249H232.738V100.068ZM387.335 100.068H348.805V133.249H387.335V100.068ZM0.606057 133.385H39.1369V166.566H0.606057V133.385ZM155.203 133.385H116.672V166.566H155.203V133.385ZM155.361 133.385H193.892V166.566H155.361V133.385ZM232.58 133.385H194.05V166.566H232.58V133.385ZM232.738 133.385H271.269V166.566H232.738V133.385ZM309.958 133.385H271.427V166.566H309.958V133.385ZM310.116 133.385H348.646V166.566H310.116V133.385ZM387.335 133.385H348.805V166.566H387.335V133.385ZM0.606057 166.702H39.1369V199.883H0.606057V166.702ZM77.8256 166.702H39.2948V199.883H77.8256V166.702ZM77.9834 166.702H116.514V199.883H77.9834V166.702ZM155.203 166.702H116.672V199.883H155.203V166.702ZM155.361 166.702H193.892V199.883H155.361V166.702ZM232.58 166.702H194.05V199.883H232.58V166.702ZM232.738 166.702H271.269V199.883H232.738V166.702ZM309.958 166.702H271.427V199.883H309.958V166.702ZM310.116 166.702H348.646V199.883H310.116V166.702ZM387.335 166.702H348.804V199.883H387.335V166.702Z" fill="url(#paint0_radial_2308_378)"/>
<defs>
<radialGradient id="paint0_radial_2308_378" cx="0" cy="0" r="1" gradientUnits="userSpaceOnUse" gradientTransform="translate(193.971 -112.255) rotate(90) scale(287.055 555.452)">
<stop stop-color="white"/>
<stop offset="1" stop-color="white" stop-opacity="0.3"/>
</radialGradient>
</defs>
</svg>
