<svg width="390" height="202" viewBox="0 0 390 202" fill="none" xmlns="http://www.w3.org/2000/svg">
<g style="mix-blend-mode:overlay">
<path d="M10.2955 1H1.5V11.5263M10.2955 1V11.5263M10.2955 1H19.0909M10.2955 11.5263H1.5M10.2955 11.5263V22.0526M10.2955 11.5263H19.0909M1.5 11.5263V22.0526M10.2955 22.0526H1.5M10.2955 22.0526V32.5789M10.2955 22.0526H19.0909M1.5 22.0526V32.5789M10.2955 32.5789H1.5M10.2955 32.5789V43.1053M10.2955 32.5789H19.0909M1.5 32.5789V43.1053M10.2955 43.1053H1.5M10.2955 43.1053V53.6316M10.2955 43.1053H19.0909M1.5 43.1053V53.6316M10.2955 53.6316H1.5M10.2955 53.6316V64.1579M10.2955 53.6316H19.0909M1.5 53.6316V64.1579M10.2955 64.1579H1.5M10.2955 64.1579V74.6842M10.2955 64.1579H19.0909M1.5 64.1579V74.6842M10.2955 74.6842H1.5M10.2955 74.6842V85.2105M10.2955 74.6842H19.0909M1.5 74.6842V85.2105M10.2955 85.2105H1.5M10.2955 85.2105V95.7368M10.2955 85.2105H19.0909M1.5 85.2105V95.7368M10.2955 95.7368H1.5M10.2955 95.7368V106.263M10.2955 95.7368H19.0909M1.5 95.7368V106.263M10.2955 106.263H1.5M10.2955 106.263V116.789M10.2955 106.263H19.0909M1.5 106.263V116.789M10.2955 116.789H1.5M10.2955 116.789V127.316M10.2955 116.789H19.0909M1.5 116.789V127.316M10.2955 127.316H1.5M10.2955 127.316V137.842M10.2955 127.316H19.0909M1.5 127.316V137.842M10.2955 137.842H1.5M10.2955 137.842V148.368M10.2955 137.842H19.0909M1.5 137.842V148.368M10.2955 148.368H1.5M10.2955 148.368V158.895M10.2955 148.368H19.0909M1.5 148.368V158.895M10.2955 158.895H1.5M10.2955 158.895V169.421M10.2955 158.895H19.0909M1.5 158.895V169.421M10.2955 169.421H1.5M10.2955 169.421V179.947M10.2955 169.421H19.0909M1.5 169.421V179.947M10.2955 179.947H1.5M10.2955 179.947V190.474M10.2955 179.947H19.0909M1.5 179.947V190.474M10.2955 190.474H1.5M10.2955 190.474V201M10.2955 190.474H19.0909M1.5 190.474V201H10.2955M10.2955 201H19.0909M19.0909 1V11.5263M19.0909 1H27.8864M19.0909 11.5263V22.0526M19.0909 11.5263H27.8864M19.0909 22.0526V32.5789M19.0909 22.0526H27.8864M19.0909 32.5789V43.1053M19.0909 32.5789H27.8864M19.0909 43.1053V53.6316M19.0909 43.1053H27.8864M19.0909 53.6316V64.1579M19.0909 53.6316H27.8864M19.0909 64.1579V74.6842M19.0909 64.1579H27.8864M19.0909 74.6842V85.2105M19.0909 74.6842H27.8864M19.0909 85.2105V95.7368M19.0909 85.2105H27.8864M19.0909 95.7368V106.263M19.0909 95.7368H27.8864M19.0909 106.263V116.789M19.0909 106.263H27.8864M19.0909 116.789V127.316M19.0909 116.789H27.8864M19.0909 127.316V137.842M19.0909 127.316H27.8864M19.0909 137.842V148.368M19.0909 137.842H27.8864M19.0909 148.368V158.895M19.0909 148.368H27.8864M19.0909 158.895V169.421M19.0909 158.895H27.8864M19.0909 169.421V179.947M19.0909 169.421H27.8864M19.0909 179.947V190.474M19.0909 179.947H27.8864M19.0909 190.474V201M19.0909 190.474H27.8864M19.0909 201H27.8864M27.8864 1V11.5263M27.8864 1H36.6818M27.8864 11.5263V22.0526M27.8864 11.5263H36.6818M27.8864 22.0526V32.5789M27.8864 22.0526H36.6818M27.8864 32.5789V43.1053M27.8864 32.5789H36.6818M27.8864 43.1053V53.6316M27.8864 43.1053H36.6818M27.8864 53.6316V64.1579M27.8864 53.6316H36.6818M27.8864 64.1579V74.6842M27.8864 64.1579H36.6818M27.8864 74.6842V85.2105M27.8864 74.6842H36.6818M27.8864 85.2105V95.7368M27.8864 85.2105H36.6818M27.8864 95.7368V106.263M27.8864 95.7368H36.6818M27.8864 106.263V116.789M27.8864 106.263H36.6818M27.8864 116.789V127.316M27.8864 116.789H36.6818M27.8864 127.316V137.842M27.8864 127.316H36.6818M27.8864 137.842V148.368M27.8864 137.842H36.6818M27.8864 148.368V158.895M27.8864 148.368H36.6818M27.8864 158.895V169.421M27.8864 158.895H36.6818M27.8864 169.421V179.947M27.8864 169.421H36.6818M27.8864 179.947V190.474M27.8864 179.947H36.6818M27.8864 190.474V201M27.8864 190.474H36.6818M27.8864 201H36.6818M36.6818 1V11.5263M36.6818 1H45.4773M36.6818 11.5263V22.0526M36.6818 11.5263H45.4773M36.6818 22.0526V32.5789M36.6818 22.0526H45.4773M36.6818 32.5789V43.1053M36.6818 32.5789H45.4773M36.6818 43.1053V53.6316M36.6818 43.1053H45.4773M36.6818 53.6316V64.1579M36.6818 53.6316H45.4773M36.6818 64.1579V74.6842M36.6818 64.1579H45.4773M36.6818 74.6842V85.2105M36.6818 74.6842H45.4773M36.6818 85.2105V95.7368M36.6818 85.2105H45.4773M36.6818 95.7368V106.263M36.6818 95.7368H45.4773M36.6818 106.263V116.789M36.6818 106.263H45.4773M36.6818 116.789V127.316M36.6818 116.789H45.4773M36.6818 127.316V137.842M36.6818 127.316H45.4773M36.6818 137.842V148.368M36.6818 137.842H45.4773M36.6818 148.368V158.895M36.6818 148.368H45.4773M36.6818 158.895V169.421M36.6818 158.895H45.4773M36.6818 169.421V179.947M36.6818 169.421H45.4773M36.6818 179.947V190.474M36.6818 179.947H45.4773M36.6818 190.474V201M36.6818 190.474H45.4773M36.6818 201H45.4773M45.4773 1V11.5263M45.4773 1H54.2727M45.4773 11.5263V22.0526M45.4773 11.5263H54.2727M45.4773 22.0526V32.5789M45.4773 22.0526H54.2727M45.4773 32.5789V43.1053M45.4773 32.5789H54.2727M45.4773 43.1053V53.6316M45.4773 43.1053H54.2727M45.4773 53.6316V64.1579M45.4773 53.6316H54.2727M45.4773 64.1579V74.6842M45.4773 64.1579H54.2727M45.4773 74.6842V85.2105M45.4773 74.6842H54.2727M45.4773 85.2105V95.7368M45.4773 85.2105H54.2727M45.4773 95.7368V106.263M45.4773 95.7368H54.2727M45.4773 106.263V116.789M45.4773 106.263H54.2727M45.4773 116.789V127.316M45.4773 116.789H54.2727M45.4773 127.316V137.842M45.4773 127.316H54.2727M45.4773 137.842V148.368M45.4773 137.842H54.2727M45.4773 148.368V158.895M45.4773 148.368H54.2727M45.4773 158.895V169.421M45.4773 158.895H54.2727M45.4773 169.421V179.947M45.4773 169.421H54.2727M45.4773 179.947V190.474M45.4773 179.947H54.2727M45.4773 190.474V201M45.4773 190.474H54.2727M45.4773 201H54.2727M54.2727 1V11.5263M54.2727 1H63.0682M54.2727 11.5263V22.0526M54.2727 11.5263H63.0682M54.2727 22.0526V32.5789M54.2727 22.0526H63.0682M54.2727 32.5789V43.1053M54.2727 32.5789H63.0682M54.2727 43.1053V53.6316M54.2727 43.1053H63.0682M54.2727 53.6316V64.1579M54.2727 53.6316H63.0682M54.2727 64.1579V74.6842M54.2727 64.1579H63.0682M54.2727 74.6842V85.2105M54.2727 74.6842H63.0682M54.2727 85.2105V95.7368M54.2727 85.2105H63.0682M54.2727 95.7368V106.263M54.2727 95.7368H63.0682M54.2727 106.263V116.789M54.2727 106.263H63.0682M54.2727 116.789V127.316M54.2727 116.789H63.0682M54.2727 127.316V137.842M54.2727 127.316H63.0682M54.2727 137.842V148.368M54.2727 137.842H63.0682M54.2727 148.368V158.895M54.2727 148.368H63.0682M54.2727 158.895V169.421M54.2727 158.895H63.0682M54.2727 169.421V179.947M54.2727 169.421H63.0682M54.2727 179.947V190.474M54.2727 179.947H63.0682M54.2727 190.474V201M54.2727 190.474H63.0682M54.2727 201H63.0682M63.0682 1V11.5263M63.0682 1H71.8636M63.0682 11.5263V22.0526M63.0682 11.5263H71.8636M63.0682 22.0526V32.5789M63.0682 22.0526H71.8636M63.0682 32.5789V43.1053M63.0682 32.5789H71.8636M63.0682 43.1053V53.6316M63.0682 43.1053H71.8636M63.0682 53.6316V64.1579M63.0682 53.6316H71.8636M63.0682 64.1579V74.6842M63.0682 64.1579H71.8636M63.0682 74.6842V85.2105M63.0682 74.6842H71.8636M63.0682 85.2105V95.7368M63.0682 85.2105H71.8636M63.0682 95.7368V106.263M63.0682 95.7368H71.8636M63.0682 106.263V116.789M63.0682 106.263H71.8636M63.0682 116.789V127.316M63.0682 116.789H71.8636M63.0682 127.316V137.842M63.0682 127.316H71.8636M63.0682 137.842V148.368M63.0682 137.842H71.8636M63.0682 148.368V158.895M63.0682 148.368H71.8636M63.0682 158.895V169.421M63.0682 158.895H71.8636M63.0682 169.421V179.947M63.0682 169.421H71.8636M63.0682 179.947V190.474M63.0682 179.947H71.8636M63.0682 190.474V201M63.0682 190.474H71.8636M63.0682 201H71.8636M71.8636 1V11.5263M71.8636 1H80.6591M71.8636 11.5263V22.0526M71.8636 11.5263H80.6591M71.8636 22.0526V32.5789M71.8636 22.0526H80.6591M71.8636 32.5789V43.1053M71.8636 32.5789H80.6591M71.8636 43.1053V53.6316M71.8636 43.1053H80.6591M71.8636 53.6316V64.1579M71.8636 53.6316H80.6591M71.8636 64.1579V74.6842M71.8636 64.1579H80.6591M71.8636 74.6842V85.2105M71.8636 74.6842H80.6591M71.8636 85.2105V95.7368M71.8636 85.2105H80.6591M71.8636 95.7368V106.263M71.8636 95.7368H80.6591M71.8636 106.263V116.789M71.8636 106.263H80.6591M71.8636 116.789V127.316M71.8636 116.789H80.6591M71.8636 127.316V137.842M71.8636 127.316H80.6591M71.8636 137.842V148.368M71.8636 137.842H80.6591M71.8636 148.368V158.895M71.8636 148.368H80.6591M71.8636 158.895V169.421M71.8636 158.895H80.6591M71.8636 169.421V179.947M71.8636 169.421H80.6591M71.8636 179.947V190.474M71.8636 179.947H80.6591M71.8636 190.474V201M71.8636 190.474H80.6591M71.8636 201H80.6591M80.6591 1V11.5263M80.6591 1H89.4545M80.6591 11.5263V22.0526M80.6591 11.5263H89.4545M80.6591 22.0526V32.5789M80.6591 22.0526H89.4545M80.6591 32.5789V43.1053M80.6591 32.5789H89.4545M80.6591 43.1053V53.6316M80.6591 43.1053H89.4545M80.6591 53.6316V64.1579M80.6591 53.6316H89.4545M80.6591 64.1579V74.6842M80.6591 64.1579H89.4545M80.6591 74.6842V85.2105M80.6591 74.6842H89.4545M80.6591 85.2105V95.7368M80.6591 85.2105H89.4545M80.6591 95.7368V106.263M80.6591 95.7368H89.4545M80.6591 106.263V116.789M80.6591 106.263H89.4545M80.6591 116.789V127.316M80.6591 116.789H89.4545M80.6591 127.316V137.842M80.6591 127.316H89.4545M80.6591 137.842V148.368M80.6591 137.842H89.4545M80.6591 148.368V158.895M80.6591 148.368H89.4545M80.6591 158.895V169.421M80.6591 158.895H89.4545M80.6591 169.421V179.947M80.6591 169.421H89.4545M80.6591 179.947V190.474M80.6591 179.947H89.4545M80.6591 190.474V201M80.6591 190.474H89.4545M80.6591 201H89.4545M89.4545 1V11.5263M89.4545 1H98.25M89.4545 11.5263V22.0526M89.4545 11.5263H98.25M89.4545 22.0526V32.5789M89.4545 22.0526H98.25M89.4545 32.5789V43.1053M89.4545 32.5789H98.25M89.4545 43.1053V53.6316M89.4545 43.1053H98.25M89.4545 53.6316V64.1579M89.4545 53.6316H98.25M89.4545 64.1579V74.6842M89.4545 64.1579H98.25M89.4545 74.6842V85.2105M89.4545 74.6842H98.25M89.4545 85.2105V95.7368M89.4545 85.2105H98.25M89.4545 95.7368V106.263M89.4545 95.7368H98.25M89.4545 106.263V116.789M89.4545 106.263H98.25M89.4545 116.789V127.316M89.4545 116.789H98.25M89.4545 127.316V137.842M89.4545 127.316H98.25M89.4545 137.842V148.368M89.4545 137.842H98.25M89.4545 148.368V158.895M89.4545 148.368H98.25M89.4545 158.895V169.421M89.4545 158.895H98.25M89.4545 169.421V179.947M89.4545 169.421H98.25M89.4545 179.947V190.474M89.4545 179.947H98.25M89.4545 190.474V201M89.4545 190.474H98.25M89.4545 201H98.25M98.25 1V11.5263M98.25 1H107.045M98.25 11.5263V22.0526M98.25 11.5263H107.045M98.25 22.0526V32.5789M98.25 22.0526H107.045M98.25 32.5789V43.1053M98.25 32.5789H107.045M98.25 43.1053V53.6316M98.25 43.1053H107.045M98.25 53.6316V64.1579M98.25 53.6316H107.045M98.25 64.1579V74.6842M98.25 64.1579H107.045M98.25 74.6842V85.2105M98.25 74.6842H107.045M98.25 85.2105V95.7368M98.25 85.2105H107.045M98.25 95.7368V106.263M98.25 95.7368H107.045M98.25 106.263V116.789M98.25 106.263H107.045M98.25 116.789V127.316M98.25 116.789H107.045M98.25 127.316V137.842M98.25 127.316H107.045M98.25 137.842V148.368M98.25 137.842H107.045M98.25 148.368V158.895M98.25 148.368H107.045M98.25 158.895V169.421M98.25 158.895H107.045M98.25 169.421V179.947M98.25 169.421H107.045M98.25 179.947V190.474M98.25 179.947H107.045M98.25 190.474V201M98.25 190.474H107.045M98.25 201H107.045M107.045 1V11.5263M107.045 1H115.841M107.045 11.5263V22.0526M107.045 11.5263H115.841M107.045 22.0526V32.5789M107.045 22.0526H115.841M107.045 32.5789V43.1053M107.045 32.5789H115.841M107.045 43.1053V53.6316M107.045 43.1053H115.841M107.045 53.6316V64.1579M107.045 53.6316H115.841M107.045 64.1579V74.6842M107.045 64.1579H115.841M107.045 74.6842V85.2105M107.045 74.6842H115.841M107.045 85.2105V95.7368M107.045 85.2105H115.841M107.045 95.7368V106.263M107.045 95.7368H115.841M107.045 106.263V116.789M107.045 106.263H115.841M107.045 116.789V127.316M107.045 116.789H115.841M107.045 127.316V137.842M107.045 127.316H115.841M107.045 137.842V148.368M107.045 137.842H115.841M107.045 148.368V158.895M107.045 148.368H115.841M107.045 158.895V169.421M107.045 158.895H115.841M107.045 169.421V179.947M107.045 169.421H115.841M107.045 179.947V190.474M107.045 179.947H115.841M107.045 190.474V201M107.045 190.474H115.841M107.045 201H115.841M115.841 1V11.5263M115.841 1H124.636M115.841 11.5263V22.0526M115.841 11.5263H124.636M115.841 22.0526V32.5789M115.841 22.0526H124.636M115.841 32.5789V43.1053M115.841 32.5789H124.636M115.841 43.1053V53.6316M115.841 43.1053H124.636M115.841 53.6316V64.1579M115.841 53.6316H124.636M115.841 64.1579V74.6842M115.841 64.1579H124.636M115.841 74.6842V85.2105M115.841 74.6842H124.636M115.841 85.2105V95.7368M115.841 85.2105H124.636M115.841 95.7368V106.263M115.841 95.7368H124.636M115.841 106.263V116.789M115.841 106.263H124.636M115.841 116.789V127.316M115.841 116.789H124.636M115.841 127.316V137.842M115.841 127.316H124.636M115.841 137.842V148.368M115.841 137.842H124.636M115.841 148.368V158.895M115.841 148.368H124.636M115.841 158.895V169.421M115.841 158.895H124.636M115.841 169.421V179.947M115.841 169.421H124.636M115.841 179.947V190.474M115.841 179.947H124.636M115.841 190.474V201M115.841 190.474H124.636M115.841 201H124.636M124.636 1V11.5263M124.636 1H133.432M124.636 11.5263V22.0526M124.636 11.5263H133.432M124.636 22.0526V32.5789M124.636 22.0526H133.432M124.636 32.5789V43.1053M124.636 32.5789H133.432M124.636 43.1053V53.6316M124.636 43.1053H133.432M124.636 53.6316V64.1579M124.636 53.6316H133.432M124.636 64.1579V74.6842M124.636 64.1579H133.432M124.636 74.6842V85.2105M124.636 74.6842H133.432M124.636 85.2105V95.7368M124.636 85.2105H133.432M124.636 95.7368V106.263M124.636 95.7368H133.432M124.636 106.263V116.789M124.636 106.263H133.432M124.636 116.789V127.316M124.636 116.789H133.432M124.636 127.316V137.842M124.636 127.316H133.432M124.636 137.842V148.368M124.636 137.842H133.432M124.636 148.368V158.895M124.636 148.368H133.432M124.636 158.895V169.421M124.636 158.895H133.432M124.636 169.421V179.947M124.636 169.421H133.432M124.636 179.947V190.474M124.636 179.947H133.432M124.636 190.474V201M124.636 190.474H133.432M124.636 201H133.432M133.432 1V11.5263M133.432 1H142.227M133.432 11.5263V22.0526M133.432 11.5263H142.227M133.432 22.0526V32.5789M133.432 22.0526H142.227M133.432 32.5789V43.1053M133.432 32.5789H142.227M133.432 43.1053V53.6316M133.432 43.1053H142.227M133.432 53.6316V64.1579M133.432 53.6316H142.227M133.432 64.1579V74.6842M133.432 64.1579H142.227M133.432 74.6842V85.2105M133.432 74.6842H142.227M133.432 85.2105V95.7368M133.432 85.2105H142.227M133.432 95.7368V106.263M133.432 95.7368H142.227M133.432 106.263V116.789M133.432 106.263H142.227M133.432 116.789V127.316M133.432 116.789H142.227M133.432 127.316V137.842M133.432 127.316H142.227M133.432 137.842V148.368M133.432 137.842H142.227M133.432 148.368V158.895M133.432 148.368H142.227M133.432 158.895V169.421M133.432 158.895H142.227M133.432 169.421V179.947M133.432 169.421H142.227M133.432 179.947V190.474M133.432 179.947H142.227M133.432 190.474V201M133.432 190.474H142.227M133.432 201H142.227M142.227 1V11.5263M142.227 1H151.023M142.227 11.5263V22.0526M142.227 11.5263H151.023M142.227 22.0526V32.5789M142.227 22.0526H151.023M142.227 32.5789V43.1053M142.227 32.5789H151.023M142.227 43.1053V53.6316M142.227 43.1053H151.023M142.227 53.6316V64.1579M142.227 53.6316H151.023M142.227 64.1579V74.6842M142.227 64.1579H151.023M142.227 74.6842V85.2105M142.227 74.6842H151.023M142.227 85.2105V95.7368M142.227 85.2105H151.023M142.227 95.7368V106.263M142.227 95.7368H151.023M142.227 106.263V116.789M142.227 106.263H151.023M142.227 116.789V127.316M142.227 116.789H151.023M142.227 127.316V137.842M142.227 127.316H151.023M142.227 137.842V148.368M142.227 137.842H151.023M142.227 148.368V158.895M142.227 148.368H151.023M142.227 158.895V169.421M142.227 158.895H151.023M142.227 169.421V179.947M142.227 169.421H151.023M142.227 179.947V190.474M142.227 179.947H151.023M142.227 190.474V201M142.227 190.474H151.023M142.227 201H151.023M151.023 1V11.5263M151.023 1H159.818M151.023 11.5263V22.0526M151.023 11.5263H159.818M151.023 22.0526V32.5789M151.023 22.0526H159.818M151.023 32.5789V43.1053M151.023 32.5789H159.818M151.023 43.1053V53.6316M151.023 43.1053H159.818M151.023 53.6316V64.1579M151.023 53.6316H159.818M151.023 64.1579V74.6842M151.023 64.1579H159.818M151.023 74.6842V85.2105M151.023 74.6842H159.818M151.023 85.2105V95.7368M151.023 85.2105H159.818M151.023 95.7368V106.263M151.023 95.7368H159.818M151.023 106.263V116.789M151.023 106.263H159.818M151.023 116.789V127.316M151.023 116.789H159.818M151.023 127.316V137.842M151.023 127.316H159.818M151.023 137.842V148.368M151.023 137.842H159.818M151.023 148.368V158.895M151.023 148.368H159.818M151.023 158.895V169.421M151.023 158.895H159.818M151.023 169.421V179.947M151.023 169.421H159.818M151.023 179.947V190.474M151.023 179.947H159.818M151.023 190.474V201M151.023 190.474H159.818M151.023 201H159.818M159.818 1V11.5263M159.818 1H168.614M159.818 11.5263V22.0526M159.818 11.5263H168.614M159.818 22.0526V32.5789M159.818 22.0526H168.614M159.818 32.5789V43.1053M159.818 32.5789H168.614M159.818 43.1053V53.6316M159.818 43.1053H168.614M159.818 53.6316V64.1579M159.818 53.6316H168.614M159.818 64.1579V74.6842M159.818 64.1579H168.614M159.818 74.6842V85.2105M159.818 74.6842H168.614M159.818 85.2105V95.7368M159.818 85.2105H168.614M159.818 95.7368V106.263M159.818 95.7368H168.614M159.818 106.263V116.789M159.818 106.263H168.614M159.818 116.789V127.316M159.818 116.789H168.614M159.818 127.316V137.842M159.818 127.316H168.614M159.818 137.842V148.368M159.818 137.842H168.614M159.818 148.368V158.895M159.818 148.368H168.614M159.818 158.895V169.421M159.818 158.895H168.614M159.818 169.421V179.947M159.818 169.421H168.614M159.818 179.947V190.474M159.818 179.947H168.614M159.818 190.474V201M159.818 190.474H168.614M159.818 201H168.614M168.614 1V11.5263M168.614 1H177.409M168.614 11.5263V22.0526M168.614 11.5263H177.409M168.614 22.0526V32.5789M168.614 22.0526H177.409M168.614 32.5789V43.1053M168.614 32.5789H177.409M168.614 43.1053V53.6316M168.614 43.1053H177.409M168.614 53.6316V64.1579M168.614 53.6316H177.409M168.614 64.1579V74.6842M168.614 64.1579H177.409M168.614 74.6842V85.2105M168.614 74.6842H177.409M168.614 85.2105V95.7368M168.614 85.2105H177.409M168.614 95.7368V106.263M168.614 95.7368H177.409M168.614 106.263V116.789M168.614 106.263H177.409M168.614 116.789V127.316M168.614 116.789H177.409M168.614 127.316V137.842M168.614 127.316H177.409M168.614 137.842V148.368M168.614 137.842H177.409M168.614 148.368V158.895M168.614 148.368H177.409M168.614 158.895V169.421M168.614 158.895H177.409M168.614 169.421V179.947M168.614 169.421H177.409M168.614 179.947V190.474M168.614 179.947H177.409M168.614 190.474V201M168.614 190.474H177.409M168.614 201H177.409M177.409 1V11.5263M177.409 1H186.205M177.409 11.5263V22.0526M177.409 11.5263H186.205M177.409 22.0526V32.5789M177.409 22.0526H186.205M177.409 32.5789V43.1053M177.409 32.5789H186.205M177.409 43.1053V53.6316M177.409 43.1053H186.205M177.409 53.6316V64.1579M177.409 53.6316H186.205M177.409 64.1579V74.6842M177.409 64.1579H186.205M177.409 74.6842V85.2105M177.409 74.6842H186.205M177.409 85.2105V95.7368M177.409 85.2105H186.205M177.409 95.7368V106.263M177.409 95.7368H186.205M177.409 106.263V116.789M177.409 106.263H186.205M177.409 116.789V127.316M177.409 116.789H186.205M177.409 127.316V137.842M177.409 127.316H186.205M177.409 137.842V148.368M177.409 137.842H186.205M177.409 148.368V158.895M177.409 148.368H186.205M177.409 158.895V169.421M177.409 158.895H186.205M177.409 169.421V179.947M177.409 169.421H186.205M177.409 179.947V190.474M177.409 179.947H186.205M177.409 190.474V201M177.409 190.474H186.205M177.409 201H186.205M186.205 1V11.5263M186.205 1H195M186.205 11.5263V22.0526M186.205 11.5263H195M186.205 22.0526V32.5789M186.205 22.0526H195M186.205 32.5789V43.1053M186.205 32.5789H195M186.205 43.1053V53.6316M186.205 43.1053H195M186.205 53.6316V64.1579M186.205 53.6316H195M186.205 64.1579V74.6842M186.205 64.1579H195M186.205 74.6842V85.2105M186.205 74.6842H195M186.205 85.2105V95.7368M186.205 85.2105H195M186.205 95.7368V106.263M186.205 95.7368H195M186.205 106.263V116.789M186.205 106.263H195M186.205 116.789V127.316M186.205 116.789H195M186.205 127.316V137.842M186.205 127.316H195M186.205 137.842V148.368M186.205 137.842H195M186.205 148.368V158.895M186.205 148.368H195M186.205 158.895V169.421M186.205 158.895H195M186.205 169.421V179.947M186.205 169.421H195M186.205 179.947V190.474M186.205 179.947H195M186.205 190.474V201M186.205 190.474H195M186.205 201H195M195 1V11.5263M195 1H203.795M195 11.5263V22.0526M195 11.5263H203.795M195 22.0526V32.5789M195 22.0526H203.795M195 32.5789V43.1053M195 32.5789H203.795M195 43.1053V53.6316M195 43.1053H203.795M195 53.6316V64.1579M195 53.6316H203.795M195 64.1579V74.6842M195 64.1579H203.795M195 74.6842V85.2105M195 74.6842H203.795M195 85.2105V95.7368M195 85.2105H203.795M195 95.7368V106.263M195 95.7368H203.795M195 106.263V116.789M195 106.263H203.795M195 116.789V127.316M195 116.789H203.795M195 127.316V137.842M195 127.316H203.795M195 137.842V148.368M195 137.842H203.795M195 148.368V158.895M195 148.368H203.795M195 158.895V169.421M195 158.895H203.795M195 169.421V179.947M195 169.421H203.795M195 179.947V190.474M195 179.947H203.795M195 190.474V201M195 190.474H203.795M195 201H203.795M203.795 1V11.5263M203.795 1H212.591M203.795 11.5263V22.0526M203.795 11.5263H212.591M203.795 22.0526V32.5789M203.795 22.0526H212.591M203.795 32.5789V43.1053M203.795 32.5789H212.591M203.795 43.1053V53.6316M203.795 43.1053H212.591M203.795 53.6316V64.1579M203.795 53.6316H212.591M203.795 64.1579V74.6842M203.795 64.1579H212.591M203.795 74.6842V85.2105M203.795 74.6842H212.591M203.795 85.2105V95.7368M203.795 85.2105H212.591M203.795 95.7368V106.263M203.795 95.7368H212.591M203.795 106.263V116.789M203.795 106.263H212.591M203.795 116.789V127.316M203.795 116.789H212.591M203.795 127.316V137.842M203.795 127.316H212.591M203.795 137.842V148.368M203.795 137.842H212.591M203.795 148.368V158.895M203.795 148.368H212.591M203.795 158.895V169.421M203.795 158.895H212.591M203.795 169.421V179.947M203.795 169.421H212.591M203.795 179.947V190.474M203.795 179.947H212.591M203.795 190.474V201M203.795 190.474H212.591M203.795 201H212.591M212.591 1V11.5263M212.591 1H221.386M212.591 11.5263V22.0526M212.591 11.5263H221.386M212.591 22.0526V32.5789M212.591 22.0526H221.386M212.591 32.5789V43.1053M212.591 32.5789H221.386M212.591 43.1053V53.6316M212.591 43.1053H221.386M212.591 53.6316V64.1579M212.591 53.6316H221.386M212.591 64.1579V74.6842M212.591 64.1579H221.386M212.591 74.6842V85.2105M212.591 74.6842H221.386M212.591 85.2105V95.7368M212.591 85.2105H221.386M212.591 95.7368V106.263M212.591 95.7368H221.386M212.591 106.263V116.789M212.591 106.263H221.386M212.591 116.789V127.316M212.591 116.789H221.386M212.591 127.316V137.842M212.591 127.316H221.386M212.591 137.842V148.368M212.591 137.842H221.386M212.591 148.368V158.895M212.591 148.368H221.386M212.591 158.895V169.421M212.591 158.895H221.386M212.591 169.421V179.947M212.591 169.421H221.386M212.591 179.947V190.474M212.591 179.947H221.386M212.591 190.474V201M212.591 190.474H221.386M212.591 201H221.386M221.386 1V11.5263M221.386 1H230.182M221.386 11.5263V22.0526M221.386 11.5263H230.182M221.386 22.0526V32.5789M221.386 22.0526H230.182M221.386 32.5789V43.1053M221.386 32.5789H230.182M221.386 43.1053V53.6316M221.386 43.1053H230.182M221.386 53.6316V64.1579M221.386 53.6316H230.182M221.386 64.1579V74.6842M221.386 64.1579H230.182M221.386 74.6842V85.2105M221.386 74.6842H230.182M221.386 85.2105V95.7368M221.386 85.2105H230.182M221.386 95.7368V106.263M221.386 95.7368H230.182M221.386 106.263V116.789M221.386 106.263H230.182M221.386 116.789V127.316M221.386 116.789C221.386 116.789 226.747 116.789 230.182 116.789M221.386 127.316V137.842M221.386 127.316H230.182M221.386 137.842V148.368M221.386 137.842H230.182M221.386 148.368V158.895M221.386 148.368H230.182M221.386 158.895V169.421M221.386 158.895H230.182M221.386 169.421V179.947M221.386 169.421H230.182M221.386 179.947V190.474M221.386 179.947H230.182M221.386 190.474V201M221.386 190.474H230.182M221.386 201H230.182M230.182 1V11.5263M230.182 1H238.977M230.182 11.5263V22.0526M230.182 11.5263H238.977M230.182 22.0526V32.5789M230.182 22.0526H238.977M230.182 32.5789V43.1053M230.182 32.5789H238.977M230.182 43.1053V53.6316M230.182 43.1053H238.977M230.182 53.6316V64.1579M230.182 53.6316H238.977M230.182 64.1579V74.6842M230.182 64.1579H238.977M230.182 74.6842V85.2105M230.182 74.6842H238.977M230.182 85.2105V95.7368M230.182 85.2105H238.977M230.182 95.7368V106.263M230.182 95.7368H238.977M230.182 106.263C230.182 106.263 230.182 112.679 230.182 116.789M230.182 106.263H238.977M230.182 116.789C230.182 120.9 230.182 127.316 230.182 127.316M230.182 116.789C233.617 116.789 238.977 116.789 238.977 116.789M230.182 127.316V137.842M230.182 127.316H238.977M230.182 137.842V148.368M230.182 137.842H238.977M230.182 148.368V158.895M230.182 148.368H238.977M230.182 158.895V169.421M230.182 158.895H238.977M230.182 169.421V179.947M230.182 169.421H238.977M230.182 179.947V190.474M230.182 179.947H238.977M230.182 190.474V201M230.182 190.474H238.977M230.182 201H238.977M238.977 1V11.5263M238.977 1H247.773M238.977 11.5263V22.0526M238.977 11.5263H247.773M238.977 22.0526V32.5789M238.977 22.0526H247.773M238.977 32.5789V43.1053M238.977 32.5789H247.773M238.977 43.1053V53.6316M238.977 43.1053H247.773M238.977 53.6316V64.1579M238.977 53.6316H247.773M238.977 64.1579V74.6842M238.977 64.1579H247.773M238.977 74.6842V85.2105M238.977 74.6842H247.773M238.977 85.2105V95.7368M238.977 85.2105H247.773M238.977 95.7368V106.263M238.977 95.7368H247.773M238.977 106.263V116.789M238.977 106.263H247.773M238.977 116.789V127.316M238.977 116.789H247.773M238.977 127.316V137.842M238.977 127.316H247.773M238.977 137.842V148.368M238.977 137.842H247.773M238.977 148.368V158.895M238.977 148.368H247.773M238.977 158.895V169.421M238.977 158.895H247.773M238.977 169.421V179.947M238.977 169.421H247.773M238.977 179.947V190.474M238.977 179.947H247.773M238.977 190.474V201M238.977 190.474H247.773M238.977 201H247.773M247.773 1V11.5263M247.773 1H256.568M247.773 11.5263V22.0526M247.773 11.5263H256.568M247.773 22.0526V32.5789M247.773 22.0526H256.568M247.773 32.5789V43.1053M247.773 32.5789H256.568M247.773 43.1053V53.6316M247.773 43.1053H256.568M247.773 53.6316V64.1579M247.773 53.6316H256.568M247.773 64.1579V74.6842M247.773 64.1579H256.568M247.773 74.6842V85.2105M247.773 74.6842H256.568M247.773 85.2105V95.7368M247.773 85.2105H256.568M247.773 95.7368V106.263M247.773 95.7368H256.568M247.773 106.263V116.789M247.773 106.263H256.568M247.773 116.789V127.316M247.773 116.789H256.568M247.773 127.316V137.842M247.773 127.316H256.568M247.773 137.842V148.368M247.773 137.842H256.568M247.773 148.368V158.895M247.773 148.368H256.568M247.773 158.895V169.421M247.773 158.895H256.568M247.773 169.421V179.947M247.773 169.421H256.568M247.773 179.947V190.474M247.773 179.947H256.568M247.773 190.474V201M247.773 190.474H256.568M247.773 201H256.568M256.568 1V11.5263M256.568 1H265.364M256.568 11.5263V22.0526M256.568 11.5263H265.364M256.568 22.0526V32.5789M256.568 22.0526H265.364M256.568 32.5789V43.1053M256.568 32.5789H265.364M256.568 43.1053V53.6316M256.568 43.1053H265.364M256.568 53.6316V64.1579M256.568 53.6316H265.364M256.568 64.1579V74.6842M256.568 64.1579H265.364M256.568 74.6842V85.2105M256.568 74.6842H265.364M256.568 85.2105V95.7368M256.568 85.2105H265.364M256.568 95.7368V106.263M256.568 95.7368H265.364M256.568 106.263V116.789M256.568 106.263H265.364M256.568 116.789V127.316M256.568 116.789H265.364M256.568 127.316V137.842M256.568 127.316H265.364M256.568 137.842V148.368M256.568 137.842H265.364M256.568 148.368V158.895M256.568 148.368H265.364M256.568 158.895V169.421M256.568 158.895H265.364M256.568 169.421V179.947M256.568 169.421H265.364M256.568 179.947V190.474M256.568 179.947H265.364M256.568 190.474V201M256.568 190.474H265.364M256.568 201H265.364M265.364 1V11.5263M265.364 1H274.159M265.364 11.5263V22.0526M265.364 11.5263H274.159M265.364 22.0526V32.5789M265.364 22.0526H274.159M265.364 32.5789V43.1053M265.364 32.5789H274.159M265.364 43.1053V53.6316M265.364 43.1053H274.159M265.364 53.6316V64.1579M265.364 53.6316H274.159M265.364 64.1579V74.6842M265.364 64.1579H274.159M265.364 74.6842V85.2105M265.364 74.6842H274.159M265.364 85.2105V95.7368M265.364 85.2105H274.159M265.364 95.7368V106.263M265.364 95.7368H274.159M265.364 106.263V116.789M265.364 106.263H274.159M265.364 116.789V127.316M265.364 116.789H274.159M265.364 127.316V137.842M265.364 127.316H274.159M265.364 137.842V148.368M265.364 137.842H274.159M265.364 148.368V158.895M265.364 148.368H274.159M265.364 158.895V169.421M265.364 158.895H274.159M265.364 169.421V179.947M265.364 169.421H274.159M265.364 179.947V190.474M265.364 179.947H274.159M265.364 190.474V201M265.364 190.474H274.159M265.364 201H274.159M274.159 1V11.5263M274.159 1H282.955M274.159 11.5263V22.0526M274.159 11.5263H282.955M274.159 22.0526V32.5789M274.159 22.0526H282.955M274.159 32.5789V43.1053M274.159 32.5789H282.955M274.159 43.1053V53.6316M274.159 43.1053H282.955M274.159 53.6316V64.1579M274.159 53.6316H282.955M274.159 64.1579V74.6842M274.159 64.1579H282.955M274.159 74.6842V85.2105M274.159 74.6842H282.955M274.159 85.2105V95.7368M274.159 85.2105H282.955M274.159 95.7368V106.263M274.159 95.7368H282.955M274.159 106.263V116.789M274.159 106.263H282.955M274.159 116.789V127.316M274.159 116.789H282.955M274.159 127.316V137.842M274.159 127.316H282.955M274.159 137.842V148.368M274.159 137.842H282.955M274.159 148.368V158.895M274.159 148.368H282.955M274.159 158.895V169.421M274.159 158.895H282.955M274.159 169.421V179.947M274.159 169.421H282.955M274.159 179.947V190.474M274.159 179.947H282.955M274.159 190.474V201M274.159 190.474H282.955M274.159 201H282.955M282.955 1V11.5263M282.955 1H291.75M282.955 11.5263V22.0526M282.955 11.5263H291.75M282.955 22.0526V32.5789M282.955 22.0526H291.75M282.955 32.5789V43.1053M282.955 32.5789H291.75M282.955 43.1053V53.6316M282.955 43.1053H291.75M282.955 53.6316V64.1579M282.955 53.6316H291.75M282.955 64.1579V74.6842M282.955 64.1579H291.75M282.955 74.6842V85.2105M282.955 74.6842H291.75M282.955 85.2105V95.7368M282.955 85.2105H291.75M282.955 95.7368V106.263M282.955 95.7368H291.75M282.955 106.263V116.789M282.955 106.263H291.75M282.955 116.789V127.316M282.955 116.789H291.75M282.955 127.316V137.842M282.955 127.316H291.75M282.955 137.842V148.368M282.955 137.842H291.75M282.955 148.368V158.895M282.955 148.368H291.75M282.955 158.895V169.421M282.955 158.895H291.75M282.955 169.421V179.947M282.955 169.421H291.75M282.955 179.947V190.474M282.955 179.947H291.75M282.955 190.474V201M282.955 190.474H291.75M282.955 201H291.75M291.75 1V11.5263M291.75 1H300.545M291.75 11.5263V22.0526M291.75 11.5263H300.545M291.75 22.0526V32.5789M291.75 22.0526H300.545M291.75 32.5789V43.1053M291.75 32.5789H300.545M291.75 43.1053V53.6316M291.75 43.1053H300.545M291.75 53.6316V64.1579M291.75 53.6316H300.545M291.75 64.1579V74.6842M291.75 64.1579H300.545M291.75 74.6842V85.2105M291.75 74.6842H300.545M291.75 85.2105V95.7368M291.75 85.2105H300.545M291.75 95.7368V106.263M291.75 95.7368H300.545M291.75 106.263V116.789M291.75 106.263H300.545M291.75 116.789V127.316M291.75 116.789H300.545M291.75 127.316V137.842M291.75 127.316H300.545M291.75 137.842V148.368M291.75 137.842H300.545M291.75 148.368V158.895M291.75 148.368H300.545M291.75 158.895V169.421M291.75 158.895H300.545M291.75 169.421V179.947M291.75 169.421H300.545M291.75 179.947V190.474M291.75 179.947H300.545M291.75 190.474V201M291.75 190.474H300.545M291.75 201H300.545M300.545 1V11.5263M300.545 1H309.341M300.545 11.5263V22.0526M300.545 11.5263H309.341M300.545 22.0526V32.5789M300.545 22.0526H309.341M300.545 32.5789V43.1053M300.545 32.5789H309.341M300.545 43.1053V53.6316M300.545 43.1053H309.341M300.545 53.6316V64.1579M300.545 53.6316H309.341M300.545 64.1579V74.6842M300.545 64.1579H309.341M300.545 74.6842V85.2105M300.545 74.6842H309.341M300.545 85.2105V95.7368M300.545 85.2105H309.341M300.545 95.7368V106.263M300.545 95.7368H309.341M300.545 106.263V116.789M300.545 106.263H309.341M300.545 116.789V127.316M300.545 116.789H309.341M300.545 127.316V137.842M300.545 127.316H309.341M300.545 137.842V148.368M300.545 137.842H309.341M300.545 148.368V158.895M300.545 148.368H309.341M300.545 158.895V169.421M300.545 158.895H309.341M300.545 169.421V179.947M300.545 169.421H309.341M300.545 179.947V190.474M300.545 179.947H309.341M300.545 190.474V201M300.545 190.474H309.341M300.545 201H309.341M309.341 1V11.5263M309.341 1H318.136M309.341 11.5263V22.0526M309.341 11.5263H318.136M309.341 22.0526V32.5789M309.341 22.0526H318.136M309.341 32.5789V43.1053M309.341 32.5789H318.136M309.341 43.1053V53.6316M309.341 43.1053H318.136M309.341 53.6316V64.1579M309.341 53.6316H318.136M309.341 64.1579V74.6842M309.341 64.1579H318.136M309.341 74.6842V85.2105M309.341 74.6842H318.136M309.341 85.2105V95.7368M309.341 85.2105H318.136M309.341 95.7368V106.263M309.341 95.7368H318.136M309.341 106.263V116.789M309.341 106.263H318.136M309.341 116.789V127.316M309.341 116.789H318.136M309.341 127.316V137.842M309.341 127.316H318.136M309.341 137.842V148.368M309.341 137.842H318.136M309.341 148.368V158.895M309.341 148.368H318.136M309.341 158.895V169.421M309.341 158.895H318.136M309.341 169.421V179.947M309.341 169.421H318.136M309.341 179.947V190.474M309.341 179.947H318.136M309.341 190.474V201M309.341 190.474H318.136M309.341 201H318.136M318.136 1V11.5263M318.136 1H326.932M318.136 11.5263V22.0526M318.136 11.5263H326.932M318.136 22.0526V32.5789M318.136 22.0526H326.932M318.136 32.5789V43.1053M318.136 32.5789H326.932M318.136 43.1053V53.6316M318.136 43.1053H326.932M318.136 53.6316V64.1579M318.136 53.6316H326.932M318.136 64.1579V74.6842M318.136 64.1579H326.932M318.136 74.6842V85.2105M318.136 74.6842H326.932M318.136 85.2105V95.7368M318.136 85.2105H326.932M318.136 95.7368V106.263M318.136 95.7368H326.932M318.136 106.263V116.789M318.136 106.263H326.932M318.136 116.789V127.316M318.136 116.789H326.932M318.136 127.316V137.842M318.136 127.316H326.932M318.136 137.842V148.368M318.136 137.842H326.932M318.136 148.368V158.895M318.136 148.368H326.932M318.136 158.895V169.421M318.136 158.895H326.932M318.136 169.421V179.947M318.136 169.421H326.932M318.136 179.947V190.474M318.136 179.947H326.932M318.136 190.474V201M318.136 190.474H326.932M318.136 201H326.932M326.932 1V11.5263M326.932 1H335.727M326.932 11.5263V22.0526M326.932 11.5263H335.727M326.932 22.0526V32.5789M326.932 22.0526H335.727M326.932 32.5789V43.1053M326.932 32.5789H335.727M326.932 43.1053V53.6316M326.932 43.1053H335.727M326.932 53.6316V64.1579M326.932 53.6316H335.727M326.932 64.1579V74.6842M326.932 64.1579H335.727M326.932 74.6842V85.2105M326.932 74.6842H335.727M326.932 85.2105V95.7368M326.932 85.2105H335.727M326.932 95.7368V106.263M326.932 95.7368H335.727M326.932 106.263V116.789M326.932 106.263H335.727M326.932 116.789V127.316M326.932 116.789H335.727M326.932 127.316V137.842M326.932 127.316H335.727M326.932 137.842V148.368M326.932 137.842H335.727M326.932 148.368V158.895M326.932 148.368H335.727M326.932 158.895V169.421M326.932 158.895H335.727M326.932 169.421V179.947M326.932 169.421H335.727M326.932 179.947V190.474M326.932 179.947H335.727M326.932 190.474V201M326.932 190.474H335.727M326.932 201H335.727M335.727 1V11.5263M335.727 1H344.523M335.727 11.5263V22.0526M335.727 11.5263H344.523M335.727 22.0526V32.5789M335.727 22.0526H344.523M335.727 32.5789V43.1053M335.727 32.5789H344.523M335.727 43.1053V53.6316M335.727 43.1053H344.523M335.727 53.6316V64.1579M335.727 53.6316H344.523M335.727 64.1579V74.6842M335.727 64.1579H344.523M335.727 74.6842V85.2105M335.727 74.6842H344.523M335.727 85.2105V95.7368M335.727 85.2105H344.523M335.727 95.7368V106.263M335.727 95.7368H344.523M335.727 106.263V116.789M335.727 106.263H344.523M335.727 116.789V127.316M335.727 116.789H344.523M335.727 127.316V137.842M335.727 127.316H344.523M335.727 137.842V148.368M335.727 137.842H344.523M335.727 148.368V158.895M335.727 148.368H344.523M335.727 158.895V169.421M335.727 158.895H344.523M335.727 169.421V179.947M335.727 169.421H344.523M335.727 179.947V190.474M335.727 179.947H344.523M335.727 190.474V201M335.727 190.474H344.523M335.727 201H344.523M344.523 1V11.5263M344.523 1H353.318M344.523 11.5263V22.0526M344.523 11.5263H353.318M344.523 22.0526V32.5789M344.523 22.0526H353.318M344.523 32.5789V43.1053M344.523 32.5789H353.318M344.523 43.1053V53.6316M344.523 43.1053H353.318M344.523 53.6316V64.1579M344.523 53.6316H353.318M344.523 64.1579V74.6842M344.523 64.1579H353.318M344.523 74.6842V85.2105M344.523 74.6842H353.318M344.523 85.2105V95.7368M344.523 85.2105H353.318M344.523 95.7368V106.263M344.523 95.7368H353.318M344.523 106.263V116.789M344.523 106.263H353.318M344.523 116.789V127.316M344.523 116.789H353.318M344.523 127.316V137.842M344.523 127.316H353.318M344.523 137.842V148.368M344.523 137.842H353.318M344.523 148.368V158.895M344.523 148.368H353.318M344.523 158.895V169.421M344.523 158.895H353.318M344.523 169.421V179.947M344.523 169.421H353.318M344.523 179.947V190.474M344.523 179.947H353.318M344.523 190.474V201M344.523 190.474H353.318M344.523 201H353.318M353.318 1V11.5263M353.318 1H362.114M353.318 11.5263V22.0526M353.318 11.5263H362.114M353.318 22.0526V32.5789M353.318 22.0526H362.114M353.318 32.5789V43.1053M353.318 32.5789H362.114M353.318 43.1053V53.6316M353.318 43.1053H362.114M353.318 53.6316V64.1579M353.318 53.6316H362.114M353.318 64.1579V74.6842M353.318 64.1579H362.114M353.318 74.6842V85.2105M353.318 74.6842H362.114M353.318 85.2105V95.7368M353.318 85.2105H362.114M353.318 95.7368V106.263M353.318 95.7368H362.114M353.318 106.263V116.789M353.318 106.263H362.114M353.318 116.789V127.316M353.318 116.789H362.114M353.318 127.316V137.842M353.318 127.316H362.114M353.318 137.842V148.368M353.318 137.842H362.114M353.318 148.368V158.895M353.318 148.368H362.114M353.318 158.895V169.421M353.318 158.895H362.114M353.318 169.421V179.947M353.318 169.421H362.114M353.318 179.947V190.474M353.318 179.947H362.114M353.318 190.474V201M353.318 190.474H362.114M353.318 201H362.114M362.114 1V11.5263M362.114 1H370.909M362.114 11.5263V22.0526M362.114 11.5263H370.909M362.114 22.0526V32.5789M362.114 22.0526H370.909M362.114 32.5789V43.1053M362.114 32.5789H370.909M362.114 43.1053V53.6316M362.114 43.1053H370.909M362.114 53.6316V64.1579M362.114 53.6316H370.909M362.114 64.1579V74.6842M362.114 64.1579H370.909M362.114 74.6842V85.2105M362.114 74.6842H370.909M362.114 85.2105V95.7368M362.114 85.2105H370.909M362.114 95.7368V106.263M362.114 95.7368H370.909M362.114 106.263V116.789M362.114 106.263H370.909M362.114 116.789V127.316M362.114 116.789H370.909M362.114 127.316V137.842M362.114 127.316H370.909M362.114 137.842V148.368M362.114 137.842H370.909M362.114 148.368V158.895M362.114 148.368H370.909M362.114 158.895V169.421M362.114 158.895H370.909M362.114 169.421V179.947M362.114 169.421H370.909M362.114 179.947V190.474M362.114 179.947H370.909M362.114 190.474V201M362.114 190.474H370.909M362.114 201H370.909M370.909 1V11.5263M370.909 1H379.705M370.909 11.5263V22.0526M370.909 11.5263H379.705M370.909 22.0526V32.5789M370.909 22.0526H379.705M370.909 32.5789V43.1053M370.909 32.5789H379.705M370.909 43.1053V53.6316M370.909 43.1053H379.705M370.909 53.6316V64.1579M370.909 53.6316H379.705M370.909 64.1579V74.6842M370.909 64.1579H379.705M370.909 74.6842V85.2105M370.909 74.6842H379.705M370.909 85.2105V95.7368M370.909 85.2105H379.705M370.909 95.7368V106.263M370.909 95.7368H379.705M370.909 106.263V116.789M370.909 106.263H379.705M370.909 116.789V127.316M370.909 116.789H379.705M370.909 127.316V137.842M370.909 127.316H379.705M370.909 137.842V148.368M370.909 137.842H379.705M370.909 148.368V158.895M370.909 148.368H379.705M370.909 158.895V169.421M370.909 158.895H379.705M370.909 169.421V179.947M370.909 169.421H379.705M370.909 179.947V190.474M370.909 179.947H379.705M370.909 190.474V201M370.909 190.474H379.705M370.909 201H379.705M379.705 1V11.5263M379.705 1H388.5V11.5263M379.705 11.5263V22.0526M379.705 11.5263H388.5M379.705 22.0526V32.5789M379.705 22.0526H388.5M379.705 32.5789V43.1053M379.705 32.5789H388.5M379.705 43.1053V53.6316M379.705 43.1053H388.5M379.705 53.6316V64.1579M379.705 53.6316H388.5M379.705 64.1579V74.6842M379.705 64.1579H388.5M379.705 74.6842V85.2105M379.705 74.6842H388.5M379.705 85.2105V95.7368M379.705 85.2105H388.5M379.705 95.7368V106.263M379.705 95.7368H388.5M379.705 106.263V116.789M379.705 106.263H388.5M379.705 116.789V127.316M379.705 116.789H388.5M379.705 127.316V137.842M379.705 127.316H388.5M379.705 137.842V148.368M379.705 137.842H388.5M379.705 148.368V158.895M379.705 148.368H388.5M379.705 158.895V169.421M379.705 158.895H388.5M379.705 169.421V179.947M379.705 169.421H388.5M379.705 179.947V190.474M379.705 179.947H388.5M379.705 190.474V201M379.705 190.474H388.5M379.705 201H388.5V190.474M388.5 11.5263V22.0526M388.5 22.0526V32.5789M388.5 32.5789V43.1053M388.5 43.1053V53.6316M388.5 53.6316V64.1579M388.5 64.1579V74.6842M388.5 74.6842V85.2105M388.5 85.2105V95.7368M388.5 95.7368V106.263M388.5 106.263V116.789M388.5 116.789V127.316M388.5 127.316V137.842M388.5 137.842V148.368M388.5 148.368V158.895M388.5 158.895V169.421M388.5 169.421V179.947M388.5 179.947V190.474" stroke="url(#paint0_radial_2308_401)" stroke-opacity="0.4" stroke-width="1.74474"/>
</g>
<defs>
<radialGradient id="paint0_radial_2308_401" cx="0" cy="0" r="1" gradientUnits="userSpaceOnUse" gradientTransform="translate(195 101) rotate(90) scale(100 156.255)">
<stop stop-color="white"/>
<stop offset="1" stop-color="white" stop-opacity="0.2"/>
</radialGradient>
</defs>
</svg>
