<svg width="28" height="28" viewBox="0 0 28 28" fill="none" xmlns="http://www.w3.org/2000/svg">
<path d="M25.0834 10.4998C25.0834 13.6544 23.1572 16.3592 20.4167 17.5019V17.4998C20.4167 12.023 15.9769 7.58317 10.5001 7.58317H10.4979C11.6408 4.84273 14.3455 2.9165 17.5001 2.9165C21.6883 2.9165 25.0834 6.31168 25.0834 10.4998ZM8.16675 3.49984C5.58942 3.49984 3.50008 5.58917 3.50008 8.1665V9.9165H5.83342V8.1665C5.83342 6.87784 6.87808 5.83317 8.16675 5.83317H9.91675V3.49984H8.16675ZM22.1667 18.0832V19.8332C22.1667 21.1219 21.1221 22.1665 19.8334 22.1665H18.0834V24.4998H19.8334C22.4107 24.4998 24.5001 22.4105 24.5001 19.8332V18.0832H22.1667ZM10.5001 25.0832C14.6883 25.0832 18.0834 21.6881 18.0834 17.4998C18.0834 13.3116 14.6883 9.9165 10.5001 9.9165C6.31192 9.9165 2.91675 13.3116 2.91675 17.4998C2.91675 21.6881 6.31192 25.0832 10.5001 25.0832ZM10.5001 14.5832L13.4167 17.4998L10.5001 20.4165L7.58342 17.4998L10.5001 14.5832Z" fill="#4A87FE"/>
</svg>
