<svg width="20" height="20" viewBox="0 0 20 20" fill="none" xmlns="http://www.w3.org/2000/svg">
<path d="M9.20842 12.4583L7.66675 14C7.34175 14.325 6.82508 14.325 6.49175 14.0083C6.40008 13.9167 6.30841 13.8333 6.21675 13.7417C5.35842 12.875 4.58341 11.9667 3.89175 11.0167C3.20841 10.0667 2.65841 9.11666 2.25841 8.17499C1.86675 7.22499 1.66675 6.31666 1.66675 5.44999C1.66675 4.88332 1.76675 4.34166 1.96675 3.84166C2.16675 3.33332 2.48341 2.86666 2.92508 2.44999C3.45841 1.92499 4.04175 1.66666 4.65842 1.66666C4.89175 1.66666 5.12508 1.71666 5.33342 1.81666C5.55008 1.91666 5.74175 2.06666 5.89175 2.28332L7.82508 5.00832C7.97508 5.21666 8.08342 5.40832 8.15841 5.59166C8.23342 5.76666 8.27508 5.94166 8.27508 6.09999C8.27508 6.29999 8.21675 6.49999 8.10008 6.69166C7.99175 6.88332 7.83341 7.08332 7.63341 7.28332L7.00008 7.94166C6.90841 8.03332 6.86675 8.14166 6.86675 8.27499C6.86675 8.34166 6.87508 8.39999 6.89175 8.46666C6.91675 8.53332 6.94175 8.58332 6.95842 8.63332C7.10842 8.90832 7.36675 9.26666 7.73341 9.69999C8.10841 10.1333 8.50841 10.575 8.94175 11.0167C9.02508 11.1 9.11675 11.1833 9.20008 11.2667C9.53341 11.5917 9.54175 12.125 9.20842 12.4583Z" fill="white"/>
<path d="M18.3084 15.275C18.3084 15.5083 18.2667 15.75 18.1834 15.9833C18.1584 16.05 18.1334 16.1167 18.1001 16.1833C17.9584 16.4833 17.7751 16.7667 17.5334 17.0333C17.1251 17.4833 16.6751 17.8083 16.1667 18.0167C16.1584 18.0167 16.1501 18.025 16.1417 18.025C15.6501 18.225 15.1167 18.3333 14.5417 18.3333C13.6917 18.3333 12.7834 18.1333 11.8251 17.725C10.8667 17.3167 9.90841 16.7667 8.95842 16.075C8.63342 15.8333 8.30842 15.5917 8.00008 15.3333L10.7251 12.6083C10.9584 12.7833 11.1667 12.9167 11.3417 13.0083C11.3834 13.025 11.4334 13.05 11.4917 13.075C11.5584 13.1 11.6251 13.1083 11.7001 13.1083C11.8417 13.1083 11.9501 13.0583 12.0417 12.9667L12.6751 12.3417C12.8834 12.1333 13.0834 11.975 13.2751 11.875C13.4667 11.7583 13.6584 11.7 13.8667 11.7C14.0251 11.7 14.1917 11.7333 14.3751 11.8083C14.5584 11.8833 14.7501 11.9917 14.9584 12.1333L17.7167 14.0917C17.9334 14.2417 18.0834 14.4167 18.1751 14.625C18.2584 14.8333 18.3084 15.0417 18.3084 15.275Z" fill="white"/>
</svg>
