<svg width="97" height="52" viewBox="0 0 97 52" fill="none" xmlns="http://www.w3.org/2000/svg">
<g clip-path="url(#clip0_2308_559)">
<path fill-rule="evenodd" clip-rule="evenodd" d="M13.2958 0.000303644C9.19805 0.000303644 5.86731 3.33406 5.86731 7.42879C5.86731 11.5265 9.20107 14.8603 13.2958 14.8603H14.404C17.3996 14.8603 19.8395 17.2972 19.8395 20.2958V44.5712C19.8395 48.6689 23.1733 51.9997 27.2861 51.9997C31.1634 51.9997 34.3522 49.0132 34.6844 45.2174C35.1313 44.9124 35.4242 44.3991 35.4242 43.8193C35.4242 42.8832 34.6663 42.1222 33.7271 42.1222C32.791 42.1222 32.0331 42.8832 32.0331 43.8193C32.0331 44.3628 32.2928 44.84 32.6914 45.151C32.4015 47.8748 30.0884 50.0067 27.271 50.0067C24.2755 50.0067 21.8355 47.5698 21.8355 44.5712V20.2958C21.8355 16.198 18.5018 12.8673 14.404 12.8673H13.2958C10.2972 12.8673 7.86032 10.4304 7.86032 7.43181C7.86032 4.43626 10.3002 1.99633 13.2958 1.99633H41.2251C44.2206 1.99633 46.6605 4.43626 46.6605 7.43181C46.6605 10.4304 44.2236 12.8673 41.2251 12.8673H40.1501C36.0523 12.8673 32.7216 16.201 32.7216 20.2958V33.7093L32.7276 35.3641C32.7276 36.5478 31.7643 37.5111 30.5806 37.5111C29.3969 37.5111 28.4366 36.5478 28.4366 35.3641V18.4115L28.4608 13.8185C28.4608 9.72074 25.127 6.39001 21.0293 6.39001H16.8107C16.5027 5.96725 16.0075 5.69245 15.4458 5.69245C14.5097 5.69245 13.7518 6.4504 13.7518 7.38651C13.7518 8.32262 14.5097 9.08057 15.4458 9.08057C16.0075 9.08057 16.5027 8.80275 16.8107 8.38301H21.0293C24.0278 8.38301 26.4647 10.8199 26.4647 13.8124L26.4406 18.4054V35.3641C26.4406 37.647 28.2977 39.5041 30.5806 39.5041C32.8635 39.5041 34.7206 37.647 34.7206 35.3611L34.7176 20.2927C34.7176 17.2972 37.1545 14.8573 40.1531 14.8573H41.2281C45.3258 14.8573 48.6566 11.5235 48.6566 7.42577C48.6566 3.32802 45.3228 -0.00271606 41.2281 -0.00271606H13.2988L13.2958 0.000303644Z" fill="url(#paint0_linear_2308_559)"/>
<path d="M41.4576 46.676L43.203 45.6281C44.432 47.8989 45.8543 49.0343 47.4668 49.0343C48.1583 49.0343 48.8076 48.8713 49.4115 48.5512C50.0185 48.2311 50.4805 47.7963 50.7945 47.2588C51.1146 46.7213 51.2717 46.1475 51.2717 45.5405C51.2717 44.8551 51.0391 44.1817 50.5711 43.5173C49.9279 42.6054 48.7532 41.5062 47.0411 40.2228C45.3228 38.9244 44.2569 37.9913 43.8371 37.4145C43.1064 36.4452 42.744 35.3973 42.744 34.271C42.744 33.3802 42.9584 32.5649 43.3872 31.828C43.816 31.0943 44.423 30.5175 45.2051 30.0917C45.9872 29.6659 46.8327 29.4576 47.7477 29.4576C48.72 29.4576 49.632 29.6961 50.4745 30.1763C51.32 30.6534 52.2138 31.5351 53.159 32.8185L51.48 34.0928C50.704 33.0661 50.0396 32.3897 49.49 32.0666C48.9404 31.7375 48.3456 31.5744 47.7024 31.5744C46.8689 31.5744 46.1865 31.828 45.655 32.3293C45.1266 32.8336 44.8578 33.4496 44.8578 34.1895C44.8578 34.6334 44.9544 35.0682 45.1386 35.4879C45.3259 35.9077 45.6671 36.3606 46.1653 36.8559C46.4311 37.1125 47.3249 37.801 48.8317 38.9062C50.6164 40.2228 51.8424 41.3915 52.5037 42.4121C53.168 43.4388 53.5002 44.4685 53.5002 45.5013C53.5002 46.99 52.9325 48.2855 51.8031 49.3846C50.6677 50.4868 49.2907 51.0334 47.6692 51.0334C46.419 51.0334 45.2836 50.6982 44.269 50.0308C43.2543 49.3635 42.3152 48.2432 41.4546 46.6729L41.4576 46.676ZM57.5104 29.4606H59.4551V41.47L66.5514 35.3279H69.3839L61.0193 42.5661L69.87 50.52H67.098L59.4521 43.6472V50.52H57.5074V29.4606H57.5104ZM72.5576 29.0892C73.0015 29.0892 73.3789 29.2462 73.693 29.5663C74.007 29.8803 74.1641 30.2669 74.1641 30.7108C74.1641 31.1486 74.007 31.5321 73.693 31.8462C73.3789 32.1663 73.0015 32.3233 72.5576 32.3233C72.1197 32.3233 71.7483 32.1663 71.4312 31.8462C71.1172 31.5321 70.9602 31.1486 70.9602 30.7108C70.9602 30.2669 71.1172 29.8803 71.4312 29.5663C71.7453 29.2462 72.1167 29.0892 72.5576 29.0892ZM71.5883 35.3279H73.533V50.5231H71.5883V35.3279ZM77.3167 29.4606H79.2613V50.52H77.3167V29.4606ZM83.045 29.4606H84.9897V50.52H83.045V29.4606ZM96.7273 36.9495L95.4681 38.2479C94.4233 37.2363 93.3996 36.7321 92.4031 36.7321C91.769 36.7321 91.2254 36.9404 90.7725 37.3602C90.3195 37.7799 90.09 38.2721 90.09 38.8338C90.09 39.329 90.2772 39.8031 90.6487 40.25C91.0201 40.709 91.8082 41.2405 93.001 41.8565C94.4505 42.6144 95.4379 43.3452 95.9633 44.0458C96.4737 44.7554 96.7303 45.5526 96.7303 46.4404C96.7303 47.6906 96.2925 48.7535 95.4138 49.6202C94.535 50.4868 93.4389 50.9217 92.1223 50.9217C91.2435 50.9217 90.4101 50.7314 89.6099 50.3479C88.8127 49.9674 88.1544 49.442 87.632 48.7686L88.861 47.3705C89.8575 48.4968 90.9204 49.0585 92.0407 49.0585C92.8228 49.0585 93.4902 48.8048 94.0428 48.3006C94.5924 47.7963 94.8672 47.2044 94.8672 46.5219C94.8672 45.9603 94.686 45.459 94.3236 45.0212C93.9552 44.5924 93.1369 44.0488 91.8565 43.3935C90.4826 42.6869 89.5495 41.9863 89.0573 41.3009C88.562 40.6154 88.3144 39.8273 88.3144 38.9455C88.3144 37.792 88.71 36.8317 89.4982 36.0707C90.2893 35.3068 91.2858 34.9263 92.4937 34.9263C93.8948 34.9263 95.3081 35.5997 96.7273 36.9495Z" fill="white"/>
<path fill-rule="evenodd" clip-rule="evenodd" d="M12.8307 20.9571C12.8307 19.8519 13.7336 18.949 14.8388 18.949C15.9441 18.949 16.847 19.8519 16.847 20.9571C16.8379 21.6879 16.4725 22.322 15.8414 22.6964V48.8048C15.8233 50.4234 14.558 51.6917 12.9395 51.7068H9.18897C7.57041 51.6887 6.30213 50.4234 6.28703 48.8048V24.925C6.28703 24.4328 5.88541 24.0312 5.3932 24.0312H2.90194C1.28338 24.013 0.0150985 22.7478 0 21.1292V19.8156C0.0181183 18.1971 1.28338 16.9288 2.90194 16.9137H9.25541C10.874 16.9318 12.1422 18.1971 12.1573 19.8156V44.0971C12.7552 44.4444 13.1629 45.0936 13.1629 45.8365C13.1629 46.9417 12.26 47.8446 11.1548 47.8446C10.0496 47.8446 9.1467 46.9417 9.1467 45.8365C9.1467 45.0966 9.55134 44.4474 10.1523 44.0971V19.8156C10.1523 19.3234 9.75064 18.9218 9.25843 18.9218H2.90496C2.41275 18.9218 2.01113 19.3234 2.01113 19.8156V21.1292C2.01113 21.6214 2.41275 22.023 2.90496 22.023H5.39622C7.01478 22.0412 8.28306 23.3064 8.29816 24.925V48.8048C8.29816 49.2971 8.69978 49.6987 9.19199 49.6987H12.9425C13.4347 49.6987 13.8363 49.2971 13.8363 48.8048V22.6964C13.2082 22.325 12.8398 21.6879 12.8307 20.9571Z" fill="url(#paint1_linear_2308_559)"/>
</g>
<defs>
<linearGradient id="paint0_linear_2308_559" x1="26.936" y1="-0.00271606" x2="26.936" y2="69.8679" gradientUnits="userSpaceOnUse">
<stop stop-color="#A3F5B7"/>
<stop offset="1" stop-color="#41AAD2"/>
</linearGradient>
<linearGradient id="paint1_linear_2308_559" x1="8.29514" y1="16.9137" x2="8.29514" y2="63.6618" gradientUnits="userSpaceOnUse">
<stop stop-color="#A3F5B7"/>
<stop offset="1" stop-color="#41AAD2"/>
</linearGradient>
<clipPath id="clip0_2308_559">
<rect width="96.7273" height="52" fill="white"/>
</clipPath>
</defs>
</svg>
