<svg width="20" height="20" viewBox="0 0 20 20" fill="none" xmlns="http://www.w3.org/2000/svg">
<path d="M13.4917 1.66669H6.50841C3.47508 1.66669 1.66675 3.47502 1.66675 6.50835V13.4834C1.66675 16.525 3.47508 18.3334 6.50841 18.3334H13.4834C16.5167 18.3334 18.3251 16.525 18.3251 13.4917V6.50835C18.3334 3.47502 16.5251 1.66669 13.4917 1.66669ZM10.0001 13.2334C8.21675 13.2334 6.76675 11.7834 6.76675 10C6.76675 8.21669 8.21675 6.76669 10.0001 6.76669C11.7834 6.76669 13.2334 8.21669 13.2334 10C13.2334 11.7834 11.7834 13.2334 10.0001 13.2334ZM14.9334 5.73335C14.8917 5.83335 14.8334 5.92502 14.7584 6.00835C14.6751 6.08335 14.5834 6.14169 14.4834 6.18335C14.3834 6.22502 14.2751 6.25002 14.1667 6.25002C13.9417 6.25002 13.7334 6.16669 13.5751 6.00835C13.5001 5.92502 13.4417 5.83335 13.4001 5.73335C13.3584 5.63335 13.3334 5.52502 13.3334 5.41669C13.3334 5.30835 13.3584 5.20002 13.4001 5.10002C13.4417 4.99169 13.5001 4.90835 13.5751 4.82502C13.7667 4.63335 14.0584 4.54169 14.3251 4.60002C14.3834 4.60835 14.4334 4.62502 14.4834 4.65002C14.5334 4.66669 14.5834 4.69169 14.6334 4.72502C14.6751 4.75002 14.7167 4.79169 14.7584 4.82502C14.8334 4.90835 14.8917 4.99169 14.9334 5.10002C14.9751 5.20002 15.0001 5.30835 15.0001 5.41669C15.0001 5.52502 14.9751 5.63335 14.9334 5.73335Z" fill="white"/>
</svg>
