<svg width="20" height="20" viewBox="0 0 20 20" fill="none" xmlns="http://www.w3.org/2000/svg">
<path d="M14.1667 2.91669H5.83342C3.33341 2.91669 1.66675 4.16669 1.66675 7.08335V12.9167C1.66675 15.8334 3.33341 17.0834 5.83342 17.0834H14.1667C16.6667 17.0834 18.3334 15.8334 18.3334 12.9167V7.08335C18.3334 4.16669 16.6667 2.91669 14.1667 2.91669ZM14.5584 7.99169L11.9501 10.075C11.4001 10.5167 10.7001 10.7334 10.0001 10.7334C9.30008 10.7334 8.59175 10.5167 8.05008 10.075L5.44175 7.99169C5.17508 7.77502 5.13341 7.37502 5.34175 7.10835C5.55841 6.84169 5.95008 6.79169 6.21675 7.00835L8.82508 9.09169C9.45842 9.60002 10.5334 9.60002 11.1667 9.09169L13.7751 7.00835C14.0417 6.79169 14.4417 6.83335 14.6501 7.10835C14.8667 7.37502 14.8251 7.77502 14.5584 7.99169Z" fill="white"/>
</svg>
