<svg width="20" height="20" viewBox="0 0 20 20" fill="none" xmlns="http://www.w3.org/2000/svg">
<path d="M13.9583 2.96675V1.66675C13.9583 1.32508 13.675 1.04175 13.3333 1.04175C12.9917 1.04175 12.7083 1.32508 12.7083 1.66675V2.91675H7.29167V1.66675C7.29167 1.32508 7.00833 1.04175 6.66667 1.04175C6.325 1.04175 6.04167 1.32508 6.04167 1.66675V2.96675C3.79167 3.17508 2.7 4.51675 2.53333 6.50841C2.51667 6.75008 2.71667 6.95008 2.95 6.95008H17.05C17.2917 6.95008 17.4917 6.74175 17.4667 6.50841C17.3 4.51675 16.2083 3.17508 13.9583 2.96675Z" fill="white"/>
<path d="M16.6667 8.20008H3.33333C2.875 8.20008 2.5 8.57508 2.5 9.03342V14.1667C2.5 16.6667 3.75 18.3334 6.66667 18.3334H13.3333C16.25 18.3334 17.5 16.6667 17.5 14.1667V9.03342C17.5 8.57508 17.125 8.20008 16.6667 8.20008ZM7.675 15.1751C7.63333 15.2084 7.59167 15.2501 7.55 15.2751C7.5 15.3084 7.45 15.3334 7.4 15.3501C7.35 15.3751 7.3 15.3917 7.25 15.4001C7.19167 15.4084 7.14167 15.4167 7.08333 15.4167C6.975 15.4167 6.86667 15.3917 6.76667 15.3501C6.65833 15.3084 6.575 15.2501 6.49167 15.1751C6.34167 15.0167 6.25 14.8001 6.25 14.5834C6.25 14.3667 6.34167 14.1501 6.49167 13.9917C6.575 13.9167 6.65833 13.8584 6.76667 13.8167C6.91667 13.7501 7.08333 13.7334 7.25 13.7667C7.3 13.7751 7.35 13.7917 7.4 13.8167C7.45 13.8334 7.5 13.8584 7.55 13.8917C7.59167 13.9251 7.63333 13.9584 7.675 13.9917C7.825 14.1501 7.91667 14.3667 7.91667 14.5834C7.91667 14.8001 7.825 15.0167 7.675 15.1751ZM7.675 12.2584C7.51667 12.4084 7.3 12.5001 7.08333 12.5001C6.86667 12.5001 6.65 12.4084 6.49167 12.2584C6.34167 12.1001 6.25 11.8834 6.25 11.6667C6.25 11.4501 6.34167 11.2334 6.49167 11.0751C6.725 10.8417 7.09167 10.7667 7.4 10.9001C7.50833 10.9417 7.6 11.0001 7.675 11.0751C7.825 11.2334 7.91667 11.4501 7.91667 11.6667C7.91667 11.8834 7.825 12.1001 7.675 12.2584ZM10.5917 15.1751C10.4333 15.3251 10.2167 15.4167 10 15.4167C9.78333 15.4167 9.56667 15.3251 9.40833 15.1751C9.25833 15.0167 9.16667 14.8001 9.16667 14.5834C9.16667 14.3667 9.25833 14.1501 9.40833 13.9917C9.71667 13.6834 10.2833 13.6834 10.5917 13.9917C10.7417 14.1501 10.8333 14.3667 10.8333 14.5834C10.8333 14.8001 10.7417 15.0167 10.5917 15.1751ZM10.5917 12.2584C10.55 12.2917 10.5083 12.3251 10.4667 12.3584C10.4167 12.3917 10.3667 12.4167 10.3167 12.4334C10.2667 12.4584 10.2167 12.4751 10.1667 12.4834C10.1083 12.4917 10.0583 12.5001 10 12.5001C9.78333 12.5001 9.56667 12.4084 9.40833 12.2584C9.25833 12.1001 9.16667 11.8834 9.16667 11.6667C9.16667 11.4501 9.25833 11.2334 9.40833 11.0751C9.48333 11.0001 9.575 10.9417 9.68333 10.9001C9.99167 10.7667 10.3583 10.8417 10.5917 11.0751C10.7417 11.2334 10.8333 11.4501 10.8333 11.6667C10.8333 11.8834 10.7417 12.1001 10.5917 12.2584ZM13.5083 15.1751C13.35 15.3251 13.1333 15.4167 12.9167 15.4167C12.7 15.4167 12.4833 15.3251 12.325 15.1751C12.175 15.0167 12.0833 14.8001 12.0833 14.5834C12.0833 14.3667 12.175 14.1501 12.325 13.9917C12.6333 13.6834 13.2 13.6834 13.5083 13.9917C13.6583 14.1501 13.75 14.3667 13.75 14.5834C13.75 14.8001 13.6583 15.0167 13.5083 15.1751ZM13.5083 12.2584C13.4667 12.2917 13.425 12.3251 13.3833 12.3584C13.3333 12.3917 13.2833 12.4167 13.2333 12.4334C13.1833 12.4584 13.1333 12.4751 13.0833 12.4834C13.025 12.4917 12.9667 12.5001 12.9167 12.5001C12.7 12.5001 12.4833 12.4084 12.325 12.2584C12.175 12.1001 12.0833 11.8834 12.0833 11.6667C12.0833 11.4501 12.175 11.2334 12.325 11.0751C12.4083 11.0001 12.4917 10.9417 12.6 10.9001C12.75 10.8334 12.9167 10.8167 13.0833 10.8501C13.1333 10.8584 13.1833 10.8751 13.2333 10.9001C13.2833 10.9167 13.3333 10.9417 13.3833 10.9751C13.425 11.0084 13.4667 11.0417 13.5083 11.0751C13.6583 11.2334 13.75 11.4501 13.75 11.6667C13.75 11.8834 13.6583 12.1001 13.5083 12.2584Z" fill="white"/>
</svg>
