<svg width="21" height="20" viewBox="0 0 21 20" fill="none" xmlns="http://www.w3.org/2000/svg">
<path d="M9.70817 12.4584L8.1665 14.0001C7.8415 14.3251 7.32484 14.3251 6.9915 14.0084C6.89984 13.9167 6.80817 13.8334 6.7165 13.7417C5.85817 12.8751 5.08317 11.9667 4.3915 11.0167C3.70817 10.0667 3.15817 9.11675 2.75817 8.17508C2.3665 7.22508 2.1665 6.31675 2.1665 5.45008C2.1665 4.88341 2.2665 4.34175 2.4665 3.84175C2.6665 3.33341 2.98317 2.86675 3.42484 2.45008C3.95817 1.92508 4.5415 1.66675 5.15817 1.66675C5.3915 1.66675 5.62484 1.71675 5.83317 1.81675C6.04984 1.91675 6.2415 2.06675 6.3915 2.28341L8.32484 5.00841C8.47484 5.21675 8.58317 5.40842 8.65817 5.59175C8.73317 5.76675 8.77484 5.94175 8.77484 6.10008C8.77484 6.30008 8.7165 6.50008 8.59984 6.69175C8.4915 6.88341 8.33317 7.08342 8.13317 7.28341L7.49984 7.94175C7.40817 8.03341 7.3665 8.14175 7.3665 8.27508C7.3665 8.34175 7.37484 8.40008 7.3915 8.46675C7.4165 8.53341 7.4415 8.58341 7.45817 8.63341C7.60817 8.90841 7.8665 9.26675 8.23317 9.70008C8.60817 10.1334 9.00817 10.5751 9.4415 11.0167C9.52484 11.1001 9.6165 11.1834 9.69984 11.2667C10.0332 11.5917 10.0415 12.1251 9.70817 12.4584Z" fill="#9CA3AF"/>
<path d="M18.8082 15.2751C18.8082 15.5084 18.7665 15.7501 18.6832 15.9834C18.6582 16.0501 18.6332 16.1167 18.5998 16.1834C18.4582 16.4834 18.2748 16.7667 18.0332 17.0334C17.6248 17.4834 17.1748 17.8084 16.6665 18.0168C16.6582 18.0168 16.6498 18.0251 16.6415 18.0251C16.1498 18.2251 15.6165 18.3334 15.0415 18.3334C14.1915 18.3334 13.2832 18.1334 12.3248 17.7251C11.3665 17.3167 10.4082 16.7667 9.45817 16.0751C9.13317 15.8334 8.80817 15.5917 8.49984 15.3334L11.2248 12.6084C11.4582 12.7834 11.6665 12.9167 11.8415 13.0084C11.8832 13.0251 11.9332 13.0501 11.9915 13.0751C12.0582 13.1001 12.1248 13.1084 12.1998 13.1084C12.3415 13.1084 12.4498 13.0584 12.5415 12.9667L13.1748 12.3417C13.3832 12.1334 13.5832 11.9751 13.7748 11.8751C13.9665 11.7584 14.1582 11.7001 14.3665 11.7001C14.5248 11.7001 14.6915 11.7334 14.8748 11.8084C15.0582 11.8834 15.2498 11.9917 15.4582 12.1334L18.2165 14.0917C18.4332 14.2417 18.5832 14.4167 18.6748 14.6251C18.7582 14.8334 18.8082 15.0417 18.8082 15.2751Z" fill="#9CA3AF"/>
</svg>
