<svg width="21" height="21" viewBox="0 0 21 21" fill="none" xmlns="http://www.w3.org/2000/svg">
<path d="M17.2505 8.99175H14.8422C12.8672 8.99175 11.2588 7.38341 11.2588 5.40841V3.00008C11.2588 2.54175 10.8838 2.16675 10.4255 2.16675H6.89215C4.32549 2.16675 2.25049 3.83342 2.25049 6.80841V14.1917C2.25049 17.1667 4.32549 18.8334 6.89215 18.8334H13.4422C16.0088 18.8334 18.0838 17.1667 18.0838 14.1917V9.82508C18.0838 9.36675 17.7088 8.99175 17.2505 8.99175ZM10.4005 13.6501L8.73382 15.3167C8.67549 15.3751 8.60049 15.4251 8.52549 15.4501C8.45049 15.4834 8.37549 15.5001 8.29215 15.5001C8.20882 15.5001 8.13382 15.4834 8.05882 15.4501C7.99216 15.4251 7.92549 15.3751 7.87549 15.3251C7.86715 15.3167 7.85882 15.3167 7.85882 15.3084L6.19215 13.6417C5.95049 13.4001 5.95049 13.0001 6.19215 12.7584C6.43382 12.5167 6.83382 12.5167 7.07549 12.7584L7.66715 13.3667V9.87508C7.66715 9.53342 7.95049 9.25008 8.29215 9.25008C8.63382 9.25008 8.91715 9.53342 8.91715 9.87508V13.3667L9.51716 12.7667C9.75882 12.5251 10.1588 12.5251 10.4005 12.7667C10.6422 13.0084 10.6422 13.4084 10.4005 13.6501Z" fill="white" fill-opacity="0.8"/>
<path d="M14.6922 7.84175C15.4838 7.85008 16.5838 7.85008 17.5255 7.85008C18.0005 7.85008 18.2505 7.29175 17.9172 6.95842C16.7172 5.75008 14.5672 3.57508 13.3338 2.34175C12.9922 2.00008 12.4005 2.23341 12.4005 2.70841V5.61675C12.4005 6.83341 13.4338 7.84175 14.6922 7.84175Z" fill="white" fill-opacity="0.8"/>
</svg>
