<svg width="21" height="21" viewBox="0 0 21 21" fill="none" xmlns="http://www.w3.org/2000/svg">
<path d="M18.0417 8.12506C16.1167 5.10006 13.3 3.3584 10.3333 3.3584C8.85 3.3584 7.40833 3.79173 6.09167 4.60007C4.775 5.41673 3.59167 6.6084 2.625 8.12506C1.79167 9.4334 1.79167 11.5584 2.625 12.8667C4.55 15.9001 7.36667 17.6334 10.3333 17.6334C11.8167 17.6334 13.2583 17.2001 14.575 16.3917C15.8917 15.5751 17.075 14.3834 18.0417 12.8667C18.875 11.5667 18.875 9.4334 18.0417 8.12506ZM10.3333 13.8667C8.46667 13.8667 6.96667 12.3584 6.96667 10.5001C6.96667 8.64173 8.46667 7.1334 10.3333 7.1334C12.2 7.1334 13.7 8.64173 13.7 10.5001C13.7 12.3584 12.2 13.8667 10.3333 13.8667Z" fill="white" fill-opacity="0.8"/>
<path d="M10.3333 8.11673C9.025 8.11673 7.95833 9.1834 7.95833 10.5001C7.95833 11.8084 9.025 12.8751 10.3333 12.8751C11.6417 12.8751 12.7167 11.8084 12.7167 10.5001C12.7167 9.19173 11.6417 8.11673 10.3333 8.11673Z" fill="white" fill-opacity="0.8"/>
</svg>
