<svg width="52" height="52" viewBox="0 0 52 52" fill="none" xmlns="http://www.w3.org/2000/svg">
<rect width="52" height="52" rx="8" fill="#0D92F4"/>
<path d="M28.6761 24.0191L22.4857 19.5991C21.619 18.98 20.4676 18.98 19.6133 19.5991L13.4228 24.0191C12.7666 24.4895 12.3828 25.2324 12.3828 26.0371V35.9048C12.3828 36.5857 12.94 37.1429 13.6209 37.1429H18.5733V29.7143H23.5257V37.1429H28.4781C29.159 37.1429 29.7161 36.5857 29.7161 35.9048V26.0371C29.7161 25.2324 29.3323 24.4895 28.6761 24.0191Z" fill="white"/>
<path d="M37.1835 14.8572H25.9664C24.6169 14.8572 23.5273 15.9467 23.5273 17.2962L23.6388 17.4077C23.7378 17.4696 23.8369 17.5191 23.9359 17.581L30.1264 22.001C31.0673 22.6696 31.7359 23.66 32.0331 24.7619H34.6702V27.2381H32.194V29.7143H34.6702V32.1905H32.194V37.1429H37.1835C38.5331 37.1429 39.6226 36.0534 39.6226 34.7038V17.2962C39.6226 15.9467 38.5331 14.8572 37.1835 14.8572ZM34.6702 22.2857H32.194V19.8096H34.6702V22.2857Z" fill="white"/>
</svg>
