<svg width="21" height="21" viewBox="0 0 21 21" fill="none" xmlns="http://www.w3.org/2000/svg">
<path d="M11.2415 5.40008H4.75817C3.33317 5.40008 2.1665 6.56675 2.1665 7.99175V17.4584C2.1665 18.6667 3.03317 19.1834 4.0915 18.5917L7.3665 16.7667C7.7165 16.5751 8.28317 16.5751 8.62484 16.7667L11.8998 18.5917C12.9665 19.1751 13.8332 18.6667 13.8332 17.4584V7.99175C13.8332 6.56675 12.6665 5.40008 11.2415 5.40008Z" fill="white" fill-opacity="0.8"/>
<path d="M18.8332 4.75841V14.2251C18.8332 15.4334 17.9666 15.9417 16.9082 15.3584L15.2999 14.4584C15.1666 14.3834 15.0832 14.2417 15.0832 14.0917V7.99175C15.0832 5.87508 13.3582 4.15008 11.2416 4.15008H7.84991C7.54157 4.15008 7.32491 3.82508 7.46657 3.55841C7.89991 2.73341 8.76657 2.16675 9.75824 2.16675H16.2416C17.6666 2.16675 18.8332 3.33341 18.8332 4.75841Z" fill="white" fill-opacity="0.8"/>
</svg>
