<svg width="21" height="20" viewBox="0 0 21 20" fill="none" xmlns="http://www.w3.org/2000/svg">
<path d="M14.6665 2.91675H6.33317C3.83317 2.91675 2.1665 4.16675 2.1665 7.08342V12.9167C2.1665 15.8334 3.83317 17.0834 6.33317 17.0834H14.6665C17.1665 17.0834 18.8332 15.8334 18.8332 12.9167V7.08342C18.8332 4.16675 17.1665 2.91675 14.6665 2.91675ZM15.0582 7.99175L12.4498 10.0751C11.8998 10.5167 11.1998 10.7334 10.4998 10.7334C9.79984 10.7334 9.0915 10.5167 8.54984 10.0751L5.9415 7.99175C5.67484 7.77508 5.63317 7.37508 5.8415 7.10841C6.05817 6.84175 6.44984 6.79175 6.7165 7.00841L9.32484 9.09175C9.95817 9.60008 11.0332 9.60008 11.6665 9.09175L14.2748 7.00841C14.5415 6.79175 14.9415 6.83341 15.1498 7.10841C15.3665 7.37508 15.3248 7.77508 15.0582 7.99175Z" fill="#9CA3AF"/>
</svg>
