<svg width="21" height="20" viewBox="0 0 21 20" fill="none" xmlns="http://www.w3.org/2000/svg">
<g clip-path="url(#clip0_2473_590)">
<path d="M19.6668 2.50008C18.8688 3.06298 17.9853 3.4935 17.0502 3.77508C16.5483 3.198 15.8813 2.78899 15.1394 2.60335C14.3974 2.41771 13.6164 2.46441 12.9019 2.73712C12.1874 3.00984 11.5739 3.49541 11.1443 4.12818C10.7148 4.76094 10.4899 5.51036 10.5002 6.27508V7.10841C9.03569 7.14639 7.58456 6.82159 6.276 6.16295C4.96745 5.50431 3.84209 4.53228 3.00016 3.33341C3.00016 3.33341 -0.33317 10.8334 7.16683 14.1667C5.4506 15.3317 3.40613 15.9159 1.3335 15.8334C8.8335 20.0001 18.0002 15.8334 18.0002 6.25008C17.9994 6.01796 17.9771 5.78641 17.9335 5.55841C18.784 4.71966 19.3842 3.66067 19.6668 2.50008Z" stroke="#9CA3AF" stroke-width="1.66667" stroke-linecap="round" stroke-linejoin="round"/>
</g>
<defs>
<clipPath id="clip0_2473_590">
<rect width="20" height="20" fill="white" transform="translate(0.5)"/>
</clipPath>
</defs>
</svg>
