<svg width="20" height="20" viewBox="0 0 20 20" fill="none" xmlns="http://www.w3.org/2000/svg">
<path d="M6.66663 2.50008H7.49996C5.87496 7.36675 5.87496 12.6334 7.49996 17.5001H6.66663M12.5 2.50008C14.125 7.36675 14.125 12.6334 12.5 17.5001M2.49996 13.3334V12.5001C7.36663 14.1251 12.6333 14.1251 17.5 12.5001V13.3334M2.49996 7.50008C7.36663 5.87508 12.6333 5.87508 17.5 7.50008M18.3333 10.0001C18.3333 14.6025 14.6023 18.3334 9.99996 18.3334C5.39759 18.3334 1.66663 14.6025 1.66663 10.0001C1.66663 5.39771 5.39759 1.66675 9.99996 1.66675C14.6023 1.66675 18.3333 5.39771 18.3333 10.0001Z" stroke="#18181B" stroke-width="1.5" stroke-linecap="round" stroke-linejoin="round"/>
</svg>
