<svg width="79" height="42" viewBox="0 0 79 42" fill="none" xmlns="http://www.w3.org/2000/svg">
<g clip-path="url(#clip0_2308_185)">
<path fill-rule="evenodd" clip-rule="evenodd" d="M10.7389 0.00024173C7.42923 0.00024173 4.73901 2.69289 4.73901 6.00017C4.73901 9.30989 7.43166 12.0025 10.7389 12.0025H11.6341C14.0535 12.0025 16.0242 13.9708 16.0242 16.3927V35.9998C16.0242 39.3095 18.7169 41.9997 22.0388 41.9997C25.1705 41.9997 27.7461 39.5876 28.0143 36.5218C28.3753 36.2754 28.6119 35.8608 28.6119 35.3925C28.6119 34.6364 27.9997 34.0218 27.2412 34.0218C26.4851 34.0218 25.8729 34.6364 25.8729 35.3925C25.8729 35.8315 26.0827 36.2169 26.4046 36.4681C26.1705 38.6681 24.3022 40.39 22.0266 40.39C19.6071 40.39 17.6364 38.4217 17.6364 35.9998V16.3927C17.6364 13.083 14.9438 10.3928 11.6341 10.3928H10.7389C8.31702 10.3928 6.34875 8.42453 6.34875 6.00261C6.34875 3.58313 8.31946 1.61242 10.7389 1.61242H33.2972C35.7167 1.61242 37.6874 3.58313 37.6874 6.00261C37.6874 8.42453 35.7191 10.3928 33.2972 10.3928H32.4289C29.1192 10.3928 26.429 13.0855 26.429 16.3927V27.2267L26.4339 28.5633C26.4339 29.5194 25.6558 30.2974 24.6997 30.2974C23.7437 30.2974 22.9681 29.5194 22.9681 28.5633V14.8708L22.9876 11.1611C22.9876 7.85137 20.2949 5.16116 16.9852 5.16116H13.5779C13.3292 4.8197 12.9292 4.59775 12.4755 4.59775C11.7194 4.59775 11.1072 5.20994 11.1072 5.96602C11.1072 6.72211 11.7194 7.3343 12.4755 7.3343C12.9292 7.3343 13.3292 7.10991 13.5779 6.77089H16.9852C19.4071 6.77089 21.3754 8.73916 21.3754 11.1562L21.3559 14.8659V28.5633C21.3559 30.4072 22.8559 31.9072 24.6997 31.9072C26.5436 31.9072 28.0436 30.4072 28.0436 28.5609L28.0412 16.3903C28.0412 13.9708 30.0094 12.0001 32.4314 12.0001H33.2996C36.6094 12.0001 39.2996 9.30745 39.2996 5.99773C39.2996 2.68801 36.6069 -0.00219727 33.2996 -0.00219727H10.7414L10.7389 0.00024173Z" fill="url(#paint0_linear_2308_185)"/>
<path d="M33.485 37.6998L34.8947 36.8535C35.8874 38.6876 37.0362 39.6047 38.3386 39.6047C38.8971 39.6047 39.4215 39.473 39.9093 39.2144C40.3995 38.9559 40.7727 38.6047 41.0264 38.1706C41.2849 37.7364 41.4117 37.273 41.4117 36.7828C41.4117 36.2291 41.2239 35.6852 40.8459 35.1486C40.3264 34.4121 39.3776 33.5243 37.9947 32.4877C36.6069 31.4389 35.7459 30.6853 35.4069 30.2194C34.8167 29.4365 34.524 28.5902 34.524 27.6804C34.524 26.9609 34.6972 26.3024 35.0435 25.7073C35.3898 25.1146 35.8801 24.6488 36.5118 24.3049C37.1435 23.961 37.8264 23.7927 38.5654 23.7927C39.3508 23.7927 40.0873 23.9854 40.7678 24.3732C41.4507 24.7585 42.1727 25.4707 42.9361 26.5073L41.58 27.5365C40.9532 26.7073 40.4166 26.1609 39.9727 25.9C39.5288 25.6341 39.0483 25.5024 38.5288 25.5024C37.8557 25.5024 37.3045 25.7073 36.8752 26.1122C36.4484 26.5195 36.2313 27.017 36.2313 27.6146C36.2313 27.9731 36.3093 28.3243 36.4581 28.6633C36.6093 29.0024 36.8849 29.3682 37.2874 29.7682C37.502 29.9755 38.224 30.5316 39.441 31.4243C40.8825 32.4877 41.8727 33.4316 42.4068 34.256C42.9434 35.0852 43.2117 35.9169 43.2117 36.7511C43.2117 37.9535 42.7532 38.9998 41.841 39.8876C40.9239 40.7778 39.8117 41.2193 38.502 41.2193C37.4923 41.2193 36.5752 40.9486 35.7557 40.4095C34.9362 39.8705 34.1777 38.9657 33.4825 37.6974L33.485 37.6998ZM46.4507 23.7951H48.0214V33.495L53.753 28.5341H56.0408L49.2848 34.3804L56.4335 40.8047H54.1945L48.019 35.2535V40.8047H46.4482V23.7951H46.4507ZM58.6042 23.4951C58.9627 23.4951 59.2676 23.6219 59.5213 23.8805C59.7749 24.1341 59.9017 24.4463 59.9017 24.8049C59.9017 25.1585 59.7749 25.4683 59.5213 25.7219C59.2676 25.9805 58.9627 26.1073 58.6042 26.1073C58.2505 26.1073 57.9505 25.9805 57.6945 25.7219C57.4408 25.4683 57.314 25.1585 57.314 24.8049C57.314 24.4463 57.4408 24.1341 57.6945 23.8805C57.9481 23.6219 58.2481 23.4951 58.6042 23.4951ZM57.8213 28.5341H59.392V40.8071H57.8213V28.5341ZM62.4481 23.7951H64.0188V40.8047H62.4481V23.7951ZM67.0748 23.7951H68.6455V40.8047H67.0748V23.7951ZM78.1259 29.8438L77.1089 30.8926C76.265 30.0755 75.4381 29.6682 74.6333 29.6682C74.1211 29.6682 73.6821 29.8365 73.3162 30.1755C72.9504 30.5145 72.765 30.9121 72.765 31.3658C72.765 31.7658 72.9162 32.1487 73.2162 32.5096C73.5162 32.8804 74.1528 33.3096 75.1162 33.8072C76.2869 34.4194 77.0845 35.0096 77.5089 35.5755C77.921 36.1486 78.1284 36.7925 78.1284 37.5096C78.1284 38.5193 77.7747 39.3779 77.065 40.0778C76.3552 40.7778 75.4699 41.1291 74.4065 41.1291C73.6967 41.1291 73.0235 40.9754 72.3772 40.6656C71.7333 40.3583 71.2016 39.9339 70.7797 39.39L71.7723 38.2608C72.5772 39.1705 73.4357 39.6242 74.3406 39.6242C74.9723 39.6242 75.5113 39.4193 75.9576 39.012C76.4015 38.6047 76.6235 38.1266 76.6235 37.5754C76.6235 37.1218 76.4772 36.7169 76.1845 36.3633C75.8869 36.0169 75.226 35.5779 74.1918 35.0486C73.0821 34.4779 72.3284 33.9121 71.9309 33.3584C71.5309 32.8048 71.3309 32.1682 71.3309 31.456C71.3309 30.5243 71.6504 29.7487 72.287 29.1341C72.926 28.517 73.7308 28.2097 74.7064 28.2097C75.8381 28.2097 76.9796 28.7536 78.1259 29.8438Z" fill="#2B2A29"/>
<path fill-rule="evenodd" clip-rule="evenodd" d="M10.3633 16.9269C10.3633 16.0343 11.0926 15.305 11.9852 15.305C12.8779 15.305 13.6072 16.0343 13.6072 16.9269C13.5998 17.5172 13.3047 18.0294 12.795 18.3318V39.4194C12.7803 40.7267 11.7584 41.751 10.4511 41.7632H7.42186C6.11456 41.7486 5.09018 40.7267 5.07799 39.4194V20.1318C5.07799 19.7342 4.7536 19.4098 4.35605 19.4098H2.34387C1.03657 19.3952 0.012195 18.3733 0 17.066V16.005C0.014634 14.6977 1.03657 13.6733 2.34387 13.6611H7.47552C8.78282 13.6758 9.8072 14.6977 9.8194 16.005V35.617C10.3023 35.8975 10.6316 36.4218 10.6316 37.0218C10.6316 37.9145 9.90232 38.6438 9.00965 38.6438C8.11698 38.6438 7.38772 37.9145 7.38772 37.0218C7.38772 36.4243 7.71454 35.8999 8.1999 35.617V16.005C8.1999 15.6075 7.87552 15.2831 7.47796 15.2831H2.34631C1.94876 15.2831 1.62437 15.6075 1.62437 16.005V17.066C1.62437 17.4635 1.94876 17.7879 2.34631 17.7879H4.35848C5.66579 17.8025 6.69016 18.8245 6.70236 20.1318V39.4194C6.70236 39.8169 7.02675 40.1413 7.4243 40.1413H10.4535C10.8511 40.1413 11.1755 39.8169 11.1755 39.4194V18.3318C10.6682 18.0318 10.3706 17.5172 10.3633 16.9269Z" fill="url(#paint1_linear_2308_185)"/>
</g>
<defs>
<linearGradient id="paint0_linear_2308_185" x1="21.756" y1="-0.00219727" x2="21.756" y2="56.4318" gradientUnits="userSpaceOnUse">
<stop stop-color="#A3F5B7"/>
<stop offset="1" stop-color="#41AAD2"/>
</linearGradient>
<linearGradient id="paint1_linear_2308_185" x1="6.69992" y1="13.6611" x2="6.69992" y2="51.4192" gradientUnits="userSpaceOnUse">
<stop stop-color="#A3F5B7"/>
<stop offset="1" stop-color="#41AAD2"/>
</linearGradient>
<clipPath id="clip0_2308_185">
<rect width="78.1259" height="42" fill="white"/>
</clipPath>
</defs>
</svg>
