<svg width="20" height="20" viewBox="0 0 20 20" fill="none" xmlns="http://www.w3.org/2000/svg">
<path d="M6.66675 2.50008H7.50008C5.87508 7.36675 5.87508 12.6334 7.50008 17.5001H6.66675M12.5001 2.50008C14.1251 7.36675 14.1251 12.6334 12.5001 17.5001M2.50008 13.3334V12.5001C7.36675 14.1251 12.6334 14.1251 17.5001 12.5001V13.3334M2.50008 7.50008C7.36675 5.87508 12.6334 5.87508 17.5001 7.50008M18.3334 10.0001C18.3334 14.6025 14.6025 18.3334 10.0001 18.3334C5.39771 18.3334 1.66675 14.6025 1.66675 10.0001C1.66675 5.39771 5.39771 1.66675 10.0001 1.66675C14.6025 1.66675 18.3334 5.39771 18.3334 10.0001Z" stroke="#0D92F4" stroke-width="1.5" stroke-linecap="round" stroke-linejoin="round"/>
</svg>
