<svg width="20" height="20" viewBox="0 0 20 20" fill="none" xmlns="http://www.w3.org/2000/svg">
<path d="M3.98339 6.91666V10.5833M13.5181 6.91691V10.5836M16.0834 6.59999V10.8917C16.0834 13.4583 14.6167 14.5583 12.4167 14.5583H5.09171C4.71671 14.5583 4.35838 14.525 4.02504 14.45C3.81671 14.4167 3.61672 14.3584 3.43339 14.2917C2.18339 13.825 1.42505 12.7417 1.42505 10.8917V6.59999C1.42505 4.03332 2.89171 2.93335 5.09171 2.93335H12.4167C14.2834 2.93335 15.625 3.72501 15.9834 5.53335C16.0417 5.86668 16.0834 6.20832 16.0834 6.59999ZM18.5843 9.10009V13.3918C18.5843 15.9584 17.1176 17.0584 14.9176 17.0584H7.59263C6.97596 17.0584 6.41763 16.9751 5.9343 16.7918C4.94263 16.4251 4.26763 15.6668 4.02596 14.4501C4.35929 14.5251 4.71763 14.5584 5.09263 14.5584H12.4176C14.6176 14.5584 16.0843 13.4584 16.0843 10.8918V6.60009C16.0843 6.20842 16.051 5.85845 15.9843 5.53345C17.5676 5.86678 18.5843 6.98342 18.5843 9.10009ZM10.9488 8.7499C10.9488 9.96492 9.96378 10.9499 8.74876 10.9499C7.53373 10.9499 6.54875 9.96492 6.54875 8.7499C6.54875 7.53487 7.53373 6.54989 8.74876 6.54989C9.96378 6.54989 10.9488 7.53487 10.9488 8.7499Z" stroke="#32B141" stroke-width="1.5" stroke-miterlimit="10" stroke-linecap="round" stroke-linejoin="round"/>
</svg>
